<?xml version="1.0" standalone="no" ?>
<!DOCTYPE svg PUBLIC "-//W3C//DTD SVG 1.1//EN" "http://www.w3.org/Graphics/SVG/1.1/DTD/svg11.dtd">
<svg width="477px" height="252px" viewBox="0 0 477 252" style="background-color: #ffffff00" xmlns="http://www.w3.org/2000/svg" xmlns:xlink="http://www.w3.org/1999/xlink" version="1.1" >
<path stroke="none" fill="#fdff96" transform="matrix(0.05 0 0 0.05 -12 -9)" d="M 7680.49,4324.32 C 7680.49,4324.32 7680.49,3204.89 7680.49,3204.89 C 7680.49,3165.15 7712.75,3132.89 7752.49,3132.89 C 7752.49,3132.89 9117.39,3132.89 9117.39,3132.89 C 9157.13,3132.89 9189.39,3165.15 9189.39,3204.89 C 9189.39,3204.89 9189.39,4324.32 9189.39,4324.32 C 9189.39,4364.06 9157.13,4396.32 9117.39,4396.32 C 9117.39,4396.32 7752.49,4396.32 7752.49,4396.32 C 7712.75,4396.32 7680.49,4364.06 7680.49,4324.32 " />
<path stroke="#fdff96" stroke-width="1" fill="none" transform="matrix(0.05 0 0 0.05 -12 -9)" d="M 7680.49,4324.32 C 7680.49,4324.32 7680.49,3204.89 7680.49,3204.89 C 7680.49,3165.15 7712.75,3132.89 7752.49,3132.89 C 7752.49,3132.89 9117.39,3132.89 9117.39,3132.89 C 9157.13,3132.89 9189.39,3165.15 9189.39,3204.89 C 9189.39,3204.89 9189.39,4324.32 9189.39,4324.32 C 9189.39,4364.06 9157.13,4396.32 9117.39,4396.32 C 9117.39,4396.32 7752.49,4396.32 7752.49,4396.32 C 7712.75,4396.32 7680.49,4364.06 7680.49,4324.32 " />
<text x="0" y="0" stroke="none" fill="#000000" transform="matrix(0.05 0 0 0.05 82.0633 178.152)" font-style="normal" font-weight="normal" font-size="200px" font-family="Arial" >
O</text>
<path stroke="none" fill="#000000" transform="matrix(0.05 0 0 0.05 -12 -9)" d="M 1454.22,3675.37 L 1460.22,3671.41 L 1466.22,3674.88 L 1466.22,3955.95 L 1460.22,3959.41 L 1454.22,3955.46 L 1454.22,3675.37 Z " />
<path stroke="none" fill="#000000" transform="matrix(0.05 0 0 0.05 -12 -9)" d="M 1460.64,3966.58 L 1460.22,3959.41 L 1466.22,3955.95 L 1709.63,4096.49 L 1709.63,4110.34 L 1460.64,3966.58 Z " />
<path stroke="none" fill="#000000" transform="matrix(0.05 0 0 0.05 -12 -9)" d="M 1709.63,4110.34 L 1709.63,4096.49 L 1953.05,3955.95 L 1959.05,3959.41 L 1958.63,3966.58 L 1709.63,4110.34 Z " />
<path stroke="none" fill="#000000" transform="matrix(0.05 0 0 0.05 -12 -9)" d="M 1965.05,3955.46 L 1959.05,3959.41 L 1953.05,3955.95 L 1953.05,3778.56 L 1965.05,3778.56 L 1965.05,3955.46 Z " />
<path stroke="none" fill="#000000" transform="matrix(0.05 0 0 0.05 -12 -9)" d="M 1871.76,3614.09 L 1865.76,3624.48 L 1709.63,3534.34 L 1709.63,3527.41 L 1715.91,3524.11 L 1871.76,3614.09 Z " />
<path stroke="none" fill="#000000" transform="matrix(0.05 0 0 0.05 -12 -9)" d="M 1703.36,3524.11 L 1709.63,3527.41 L 1709.63,3534.34 L 1466.22,3674.88 L 1460.22,3671.41 L 1460.64,3664.24 L 1703.36,3524.11 Z " />
<text x="0" y="0" stroke="none" fill="#000000" transform="matrix(0.05 0 0 0.05 94.5341 199.752)" font-style="normal" font-weight="normal" font-size="200px" font-family="Arial" >
O</text>
<path stroke="none" fill="#000000" transform="matrix(0.05 0 0 0.05 -12 -9)" d="M 1958.63,3966.58 L 1959.05,3959.41 L 1965.05,3955.46 L 2133.18,4025.31 L 2103.18,4077.27 L 1958.63,3966.58 Z " />
<path stroke="none" fill="#000000" transform="matrix(0.05 0 0 0.05 -12 -9)" d="M 2300.95,4056.95 L 2294.95,4046.56 L 2451.88,3955.95 L 2457.88,3959.41 L 2457.88,3966.34 L 2300.95,4056.95 Z " />
<path stroke="none" fill="#000000" transform="matrix(0.05 0 0 0.05 -12 -9)" d="M 2457.88,3966.34 L 2457.88,3959.41 L 2463.88,3955.95 L 2707.3,4096.49 L 2707.3,4103.41 L 2701.3,4106.88 L 2457.88,3966.34 Z " />
<path stroke="none" fill="#000000" transform="matrix(0.05 0 0 0.05 -12 -9)" d="M 2506.72,3934.68 L 2512.72,3924.29 L 2710.3,4038.36 L 2704.3,4048.75 L 2506.72,3934.68 Z " />
<path stroke="none" fill="#000000" transform="matrix(0.05 0 0 0.05 -12 -9)" d="M 2713.3,4106.88 L 2707.3,4103.41 L 2707.3,4096.49 L 2950.71,3955.95 L 2962.71,3962.88 L 2713.3,4106.88 Z " />
<path stroke="none" fill="#000000" transform="matrix(0.05 0 0 0.05 -12 -9)" d="M 2962.71,3962.88 L 2950.71,3955.95 L 2950.71,3674.88 L 2962.71,3667.95 L 2962.71,3962.88 Z " />
<path stroke="none" fill="#000000" transform="matrix(0.05 0 0 0.05 -12 -9)" d="M 2910.87,3929.48 L 2898.87,3929.48 L 2898.87,3701.34 L 2910.87,3701.34 L 2910.87,3929.48 Z " />
<path stroke="none" fill="#000000" transform="matrix(0.05 0 0 0.05 -12 -9)" d="M 2962.71,3667.95 L 2950.71,3674.88 L 2707.3,3534.34 L 2707.3,3520.49 L 2962.71,3667.95 Z " />
<path stroke="none" fill="#000000" transform="matrix(0.05 0 0 0.05 -12 -9)" d="M 2707.3,3520.49 L 2707.3,3534.34 L 2463.88,3674.88 L 2451.88,3667.95 L 2707.3,3520.49 Z " />
<path stroke="none" fill="#000000" transform="matrix(0.05 0 0 0.05 -12 -9)" d="M 2704.3,3582.08 L 2710.3,3592.47 L 2512.72,3706.54 L 2506.72,3696.15 L 2704.3,3582.08 Z " />
<path stroke="none" fill="#000000" transform="matrix(0.05 0 0 0.05 -12 -9)" d="M 2451.88,3667.95 L 2463.88,3674.88 L 2463.88,3955.95 L 2457.88,3959.41 L 2451.88,3955.95 L 2451.88,3667.95 Z " />
<text x="0" y="0" stroke="none" fill="#000000" transform="matrix(0.05 0 0 0.05 37.4294 170.952)" font-style="normal" font-weight="normal" font-size="200px" font-family="Arial" >
HO</text>
<path stroke="none" fill="#000000" transform="matrix(0.05 0 0 0.05 -12 -9)" d="M 1460.64,3664.24 L 1460.22,3671.41 L 1454.22,3675.37 L 1286.62,3605.83 L 1316.62,3553.86 L 1460.64,3664.24 Z " />
<text x="0" y="0" stroke="none" fill="#000000" transform="matrix(0.05 0 0 0.05 37.4294 199.752)" font-style="normal" font-weight="normal" font-size="200px" font-family="Arial" >
HO</text>
<path stroke="none" fill="#000000" transform="matrix(0.05 0 0 0.05 -12 -9)" d="M 1454.22,3955.46 L 1460.22,3959.41 L 1460.64,3966.58 L 1315.97,4077.34 L 1285.97,4025.38 L 1454.22,3955.46 Z " />
<text x="0" y="0" stroke="none" fill="#000000" transform="matrix(0.05 0 0 0.05 69.5926 214.152)" font-style="normal" font-weight="normal" font-size="200px" font-family="Arial" >
OH</text>
<path stroke="none" fill="#000000" transform="matrix(0.05 0 0 0.05 -12 -9)" d="M 1703.63,4153.45 L 1715.63,4153.45 L 1717.81,4165.45 L 1701.45,4165.45 L 1703.63,4153.45 Z " />
<path stroke="none" fill="#000000" transform="matrix(0.05 0 0 0.05 -12 -9)" d="M 1692.72,4213.51 L 1726.54,4213.51 L 1728.72,4225.51 L 1690.54,4225.51 L 1692.72,4213.51 Z " />
<path stroke="none" fill="#000000" transform="matrix(0.05 0 0 0.05 -12 -9)" d="M 1681.81,4273.56 L 1737.45,4273.56 L 1739.63,4285.56 L 1679.63,4285.56 L 1681.81,4273.56 Z " />
<path stroke="none" fill="#000000" transform="matrix(0.05 0 0 0.05 -12 -9)" d="M 1715.91,3524.11 L 1709.63,3527.41 L 1703.36,3524.11 L 1678.72,3228.5 L 1738.81,3249.33 L 1715.91,3524.11 Z " />
<text x="0" y="0" stroke="none" fill="#000000" transform="matrix(0.05 0 0 0.05 49.9001 149.352)" font-style="normal" font-weight="normal" font-size="200px" font-family="Arial" >
HO</text>
<path stroke="none" fill="#000000" transform="matrix(0.05 0 0 0.05 -12 -9)" d="M 1738.81,3249.33 L 1678.72,3228.5 L 1547.28,3152.61 L 1553.28,3142.22 L 1738.81,3249.33 Z " />
<text x="0" y="0" stroke="none" fill="#000000" transform="matrix(0.05 0 0 0.05 119.754 214.152)" font-style="normal" font-weight="normal" font-size="200px" font-family="Arial" >
NO</text>
<text x="0" y="0" stroke="none" fill="#000000" transform="matrix(0.05 0 0 0.05 134.754 216.271)" font-style="normal" font-weight="normal" font-size="150px" font-family="Arial" >
2</text>
<path stroke="none" fill="#000000" transform="matrix(0.05 0 0 0.05 -12 -9)" d="M 2701.3,4106.88 L 2707.3,4103.41 L 2713.3,4106.88 L 2713.3,4288.56 L 2701.3,4288.56 L 2701.3,4106.88 Z " />
<path stroke="none" fill="#000000" transform="matrix(0.05 0 0 0.05 -12 -9)" d="M 5075.24,3886.41 L 3303.03,3886.41 L 3303.03,3874.41 L 5075.24,3874.41 Z " />
<path stroke="none" fill="#000000" transform="matrix(0.05 0 0 0.05 -12 -9)" d="M 5231.74,3880.41 C 5231.74,3880.41 5051.74,3926.41 5051.74,3926.41 C 5051.74,3926.41 5074.24,3900.53 5074.24,3880.41 C 5074.24,3859.85 5051.74,3833.41 5051.74,3833.41 C 5051.74,3833.41 5231.74,3880.41 5231.74,3880.41 C 5231.74,3880.41 5231.74,3880.41 5231.74,3880.41 " />
<path stroke="#000000" stroke-width="1" fill="none" transform="matrix(0.05 0 0 0.05 -12 -9)" d="M 5231.74,3880.41 C 5231.74,3880.41 5051.74,3926.41 5051.74,3926.41 C 5051.74,3926.41 5074.24,3900.53 5074.24,3880.41 C 5074.24,3859.85 5051.74,3833.41 5051.74,3833.41 C 5051.74,3833.41 5231.74,3880.41 5231.74,3880.41 C 5231.74,3880.41 5231.74,3880.41 5231.74,3880.41 " />
<text x="0" y="0" stroke="none" fill="#000000" transform="matrix(0.05 0 0 0.05 165.852 200.801)" font-style="normal" font-weight="normal" font-size="200px" font-family="Helvetica" >
β-galactosidase</text>
<path stroke="#000000" stroke-width="12" fill="none" transform="matrix(0.05 0 0 0.05 -12 -9)" d="M 3877.97,3550.37 C 4024.97,3751.16 4268.29,3876.8 4517.12,3880.41 " />
<text x="0" y="0" stroke="none" fill="#000000" transform="matrix(0.05 0 0 0.05 172.944 162.816)" font-style="normal" font-weight="normal" font-size="200px" font-family="Helvetica" >
H</text>
<text x="0" y="0" stroke="none" fill="#000000" transform="matrix(0.05 0 0 0.05 180.166 165.116)" font-style="normal" font-weight="normal" font-size="150px" font-family="Helvetica" >
2</text>
<text x="0" y="0" stroke="none" fill="#000000" transform="matrix(0.05 0 0 0.05 184.337 162.816)" font-style="normal" font-weight="normal" font-size="200px" font-family="Helvetica" >
O</text>
<text x="0" y="0" stroke="none" fill="#000000" transform="matrix(0.05 0 0 0.05 308.042 179.151)" font-style="normal" font-weight="normal" font-size="200px" font-family="Arial" >
O</text>
<path stroke="none" fill="#000000" transform="matrix(0.05 0 0 0.05 -12 -9)" d="M 5973.79,3695.33 L 5979.79,3691.38 L 5985.79,3694.85 L 5985.79,3975.92 L 5979.79,3979.38 L 5973.79,3975.44 L 5973.79,3695.33 Z " />
<path stroke="none" fill="#000000" transform="matrix(0.05 0 0 0.05 -12 -9)" d="M 5980.21,3986.55 L 5979.79,3979.38 L 5985.79,3975.92 L 6229.21,4116.46 L 6229.21,4130.31 L 5980.21,3986.55 Z " />
<path stroke="none" fill="#000000" transform="matrix(0.05 0 0 0.05 -12 -9)" d="M 6229.21,4130.31 L 6229.21,4116.46 L 6472.62,3975.92 L 6478.62,3979.38 L 6478.2,3986.55 L 6229.21,4130.31 Z " />
<path stroke="none" fill="#000000" transform="matrix(0.05 0 0 0.05 -12 -9)" d="M 6484.62,3975.44 L 6478.62,3979.38 L 6472.62,3975.92 L 6472.62,3798.53 L 6484.62,3798.53 L 6484.62,3975.44 Z " />
<path stroke="none" fill="#000000" transform="matrix(0.05 0 0 0.05 -12 -9)" d="M 6391.34,3634.06 L 6385.34,3644.45 L 6229.21,3554.31 L 6229.21,3547.38 L 6235.48,3544.08 L 6391.34,3634.06 Z " />
<path stroke="none" fill="#000000" transform="matrix(0.05 0 0 0.05 -12 -9)" d="M 6222.93,3544.08 L 6229.21,3547.38 L 6229.21,3554.31 L 5985.79,3694.85 L 5979.79,3691.38 L 5980.21,3684.21 L 6222.93,3544.08 Z " />
<path stroke="none" fill="#000000" transform="matrix(0.05 0 0 0.05 -12 -9)" d="M 8383.56,3721.37 L 8383.56,3714.44 L 8389.56,3710.98 L 8632.98,3851.51 L 8632.98,3858.44 L 8626.98,3861.91 L 8383.56,3721.37 Z " />
<path stroke="none" fill="#000000" transform="matrix(0.05 0 0 0.05 -12 -9)" d="M 8432.4,3689.71 L 8438.4,3679.32 L 8635.98,3793.39 L 8629.98,3803.78 L 8432.4,3689.71 Z " />
<path stroke="none" fill="#000000" transform="matrix(0.05 0 0 0.05 -12 -9)" d="M 8638.98,3861.91 L 8632.98,3858.44 L 8632.98,3851.51 L 8876.39,3710.98 L 8888.39,3717.91 L 8638.98,3861.91 Z " />
<path stroke="none" fill="#000000" transform="matrix(0.05 0 0 0.05 -12 -9)" d="M 8888.39,3717.91 L 8876.39,3710.98 L 8876.39,3429.91 L 8888.39,3422.98 L 8888.39,3717.91 Z " />
<path stroke="none" fill="#000000" transform="matrix(0.05 0 0 0.05 -12 -9)" d="M 8836.55,3684.51 L 8824.55,3684.51 L 8824.55,3456.37 L 8836.55,3456.37 L 8836.55,3684.51 Z " />
<path stroke="none" fill="#000000" transform="matrix(0.05 0 0 0.05 -12 -9)" d="M 8888.39,3422.98 L 8876.39,3429.91 L 8632.98,3289.37 L 8632.98,3275.51 L 8888.39,3422.98 Z " />
<path stroke="none" fill="#000000" transform="matrix(0.05 0 0 0.05 -12 -9)" d="M 8632.98,3275.51 L 8632.98,3289.37 L 8389.56,3429.91 L 8377.56,3422.98 L 8632.98,3275.51 Z " />
<path stroke="none" fill="#000000" transform="matrix(0.05 0 0 0.05 -12 -9)" d="M 8629.98,3337.11 L 8635.98,3347.5 L 8438.4,3461.57 L 8432.4,3451.18 L 8629.98,3337.11 Z " />
<path stroke="none" fill="#000000" transform="matrix(0.05 0 0 0.05 -12 -9)" d="M 8377.56,3422.98 L 8389.56,3429.91 L 8389.56,3710.98 L 8383.56,3714.44 L 8377.56,3710.98 L 8377.56,3422.98 Z " />
<text x="0" y="0" stroke="none" fill="#000000" transform="matrix(0.05 0 0 0.05 263.408 171.951)" font-style="normal" font-weight="normal" font-size="200px" font-family="Arial" >
HO</text>
<path stroke="none" fill="#000000" transform="matrix(0.05 0 0 0.05 -12 -9)" d="M 5980.21,3684.21 L 5979.79,3691.38 L 5973.79,3695.33 L 5805.44,3625.36 L 5835.44,3573.4 L 5980.21,3684.21 Z " />
<text x="0" y="0" stroke="none" fill="#000000" transform="matrix(0.05 0 0 0.05 263.408 200.751)" font-style="normal" font-weight="normal" font-size="200px" font-family="Arial" >
HO</text>
<path stroke="none" fill="#000000" transform="matrix(0.05 0 0 0.05 -12 -9)" d="M 5973.79,3975.44 L 5979.79,3979.38 L 5980.21,3986.55 L 5834.79,4097.74 L 5804.79,4045.78 L 5973.79,3975.44 Z " />
<text x="0" y="0" stroke="none" fill="#000000" transform="matrix(0.05 0 0 0.05 295.571 215.151)" font-style="normal" font-weight="normal" font-size="200px" font-family="Arial" >
OH</text>
<path stroke="none" fill="#000000" transform="matrix(0.05 0 0 0.05 -12 -9)" d="M 6223.21,4173.43 L 6235.21,4173.43 L 6237.39,4185.42 L 6221.03,4185.42 L 6223.21,4173.43 Z " />
<path stroke="none" fill="#000000" transform="matrix(0.05 0 0 0.05 -12 -9)" d="M 6212.3,4233.48 L 6246.12,4233.48 L 6248.3,4245.48 L 6210.12,4245.48 L 6212.3,4233.48 Z " />
<path stroke="none" fill="#000000" transform="matrix(0.05 0 0 0.05 -12 -9)" d="M 6201.39,4293.53 L 6257.03,4293.53 L 6259.21,4305.53 L 6199.21,4305.53 L 6201.39,4293.53 Z " />
<path stroke="none" fill="#000000" transform="matrix(0.05 0 0 0.05 -12 -9)" d="M 6235.48,3544.08 L 6229.21,3547.38 L 6222.93,3544.08 L 6198.3,3248.47 L 6258.38,3269.3 L 6235.48,3544.08 Z " />
<text x="0" y="0" stroke="none" fill="#000000" transform="matrix(0.05 0 0 0.05 275.879 150.351)" font-style="normal" font-weight="normal" font-size="200px" font-family="Arial" >
HO</text>
<path stroke="none" fill="#000000" transform="matrix(0.05 0 0 0.05 -12 -9)" d="M 6258.38,3269.3 L 6198.3,3248.47 L 6067.6,3173.01 L 6073.6,3162.62 L 6258.38,3269.3 Z " />
<text x="0" y="0" stroke="none" fill="#000000" transform="matrix(0.05 0 0 0.05 416.038 201.904)" font-style="normal" font-weight="normal" font-size="200px" font-family="Arial" >
NO</text>
<text x="0" y="0" stroke="none" fill="#000000" transform="matrix(0.05 0 0 0.05 431.038 204.023)" font-style="normal" font-weight="normal" font-size="150px" font-family="Arial" >
2</text>
<path stroke="none" fill="#000000" transform="matrix(0.05 0 0 0.05 -12 -9)" d="M 8626.98,3861.91 L 8632.98,3858.44 L 8638.98,3861.91 L 8638.98,4043.59 L 8626.98,4043.59 L 8626.98,3861.91 Z " />
<text x="0" y="0" stroke="none" fill="#000000" transform="matrix(0.05 0 0 0.05 320.513 200.751)" font-style="normal" font-weight="normal" font-size="200px" font-family="Arial" >
OH</text>
<path stroke="none" fill="#000000" transform="matrix(0.05 0 0 0.05 -12 -9)" d="M 6478.2,3986.55 L 6478.62,3979.38 L 6484.62,3975.44 L 6653.5,4045.71 L 6623.5,4097.67 L 6478.2,3986.55 Z " />
<text x="0" y="0" stroke="none" fill="#000000" transform="matrix(0.05 0 0 0.05 383.596 187.504)" font-style="normal" font-weight="normal" font-size="200px" font-family="Arial" >
HO</text>
<path stroke="none" fill="#000000" transform="matrix(0.05 0 0 0.05 -12 -9)" d="M 8377.56,3710.98 L 8383.56,3714.44 L 8383.56,3721.37 L 8227.31,3811.58 L 8221.31,3801.19 L 8377.56,3710.98 Z " />
<text x="0" y="0" stroke="none" fill="#000000" transform="matrix(0.05 0 0 0.05 19.1123 231.775)" font-style="italic" font-weight="normal" font-size="200px" font-family="Arial" >
ortho</text>
<text x="0" y="0" stroke="none" fill="#000000" transform="matrix(0.05 0 0 0.05 41.9052 231.775)" font-style="normal" font-weight="normal" font-size="200px" font-family="Arial" >
-nitrophenyl-β-galactoside</text>
<text x="0" y="0" stroke="none" fill="#000000" transform="matrix(0.05 0 0 0.05 70.0815 243.274)" font-style="normal" font-weight="normal" font-size="200px" font-family="Arial" >
(ONPG)</text>
<text x="0" y="0" stroke="none" fill="#000000" transform="matrix(0.05 0 0 0.05 266.504 237.522)" font-style="normal" font-weight="normal" font-size="200px" font-family="Arial" >
β-D-galactose</text>
<text x="0" y="0" stroke="none" fill="#000000" transform="matrix(0.05 0 0 0.05 371.08 237.519)" font-style="italic" font-weight="normal" font-size="200px" font-family="Arial" >
ortho</text>
<text x="0" y="0" stroke="none" fill="#000000" transform="matrix(0.05 0 0 0.05 393.873 237.519)" font-style="normal" font-weight="normal" font-size="200px" font-family="Arial" >
-Nitrophenol</text>
<text x="0" y="0" stroke="none" fill="#000000" transform="matrix(0.05 0 0 0.05 363.55 54.5611)" font-style="normal" font-weight="normal" font-size="280px" font-family="Helvetica" >
+</text>
<text x="0" y="0" stroke="none" fill="#000000" transform="matrix(0.05 0 0 0.05 83.144 50.9098)" font-style="normal" font-weight="normal" font-size="200px" font-family="Arial" >
O</text>
<path stroke="none" fill="#000000" transform="matrix(0.05 0 0 0.05 -12 -9)" d="M 1475.83,1130.51 L 1481.83,1126.57 L 1487.83,1130.03 L 1487.83,1411.1 L 1481.83,1414.57 L 1475.83,1410.62 L 1475.83,1130.51 Z " />
<path stroke="none" fill="#000000" transform="matrix(0.05 0 0 0.05 -12 -9)" d="M 1482.25,1421.74 L 1481.83,1414.57 L 1487.83,1411.1 L 1731.25,1551.64 L 1731.25,1565.49 L 1482.25,1421.74 Z " />
<path stroke="none" fill="#000000" transform="matrix(0.05 0 0 0.05 -12 -9)" d="M 1731.25,1565.49 L 1731.25,1551.64 L 1974.66,1411.1 L 1980.66,1414.57 L 1980.24,1421.74 L 1731.25,1565.49 Z " />
<path stroke="none" fill="#000000" transform="matrix(0.05 0 0 0.05 -12 -9)" d="M 1986.66,1410.62 L 1980.66,1414.57 L 1974.66,1411.1 L 1974.66,1233.71 L 1986.66,1233.71 L 1986.66,1410.62 Z " />
<path stroke="none" fill="#000000" transform="matrix(0.05 0 0 0.05 -12 -9)" d="M 1893.38,1069.24 L 1887.38,1079.63 L 1731.25,989.494 L 1731.25,982.565 L 1737.52,979.26 L 1893.38,1069.24 Z " />
<path stroke="none" fill="#000000" transform="matrix(0.05 0 0 0.05 -12 -9)" d="M 1724.97,979.26 L 1731.25,982.565 L 1731.25,989.494 L 1487.83,1130.03 L 1481.83,1126.57 L 1482.25,1119.39 L 1724.97,979.26 Z " />
<text x="0" y="0" stroke="none" fill="#000000" transform="matrix(0.05 0 0 0.05 95.6147 72.5098)" font-style="normal" font-weight="normal" font-size="200px" font-family="Arial" >
O</text>
<path stroke="none" fill="#000000" transform="matrix(0.05 0 0 0.05 -12 -9)" d="M 1980.24,1421.74 L 1980.66,1414.57 L 1986.66,1410.62 L 2154.79,1480.46 L 2124.79,1532.42 L 1980.24,1421.74 Z " />
<text x="0" y="0" stroke="none" fill="#000000" transform="matrix(0.05 0 0 0.05 120.556 43.7098)" font-style="normal" font-weight="normal" font-size="200px" font-family="Arial" >
O</text>
<path stroke="none" fill="#000000" transform="matrix(0.05 0 0 0.05 -12 -9)" d="M 2473.49,1418.03 L 2485.49,1411.1 L 2728.91,1551.64 L 2728.91,1558.57 L 2722.48,1561.78 L 2473.49,1418.03 Z " />
<path stroke="none" fill="#000000" transform="matrix(0.05 0 0 0.05 -12 -9)" d="M 2735.33,1561.78 L 2728.91,1558.57 L 2728.91,1551.64 L 2972.32,1411.1 L 2984.32,1418.03 L 2735.33,1561.78 Z " />
<path stroke="none" fill="#000000" transform="matrix(0.05 0 0 0.05 -12 -9)" d="M 2984.32,1418.03 L 2972.32,1411.1 L 2972.32,1130.03 L 2978.32,1126.57 L 2984.32,1130.52 L 2984.32,1418.03 Z " />
<path stroke="none" fill="#000000" transform="matrix(0.05 0 0 0.05 -12 -9)" d="M 2977.9,1119.39 L 2978.32,1126.57 L 2972.32,1130.03 L 2816.04,1039.8 L 2822.04,1029.4 L 2977.9,1119.39 Z " />
<path stroke="none" fill="#000000" transform="matrix(0.05 0 0 0.05 -12 -9)" d="M 2635.18,1029.75 L 2641.18,1040.15 L 2485.49,1130.03 L 2479.49,1126.57 L 2479.77,1119.48 L 2635.18,1029.75 Z " />
<path stroke="none" fill="#000000" transform="matrix(0.05 0 0 0.05 -12 -9)" d="M 2473.49,1130.35 L 2479.49,1126.57 L 2485.49,1130.03 L 2485.49,1411.1 L 2473.49,1418.03 L 2473.49,1130.35 Z " />
<path stroke="none" fill="#000000" transform="matrix(0.05 0 0 0.05 -12 -9)" d="M 1737.52,979.26 L 1731.25,982.565 L 1724.97,979.26 L 1700.34,683.648 L 1760.42,704.481 L 1737.52,979.26 Z " />
<text x="0" y="0" stroke="none" fill="#000000" transform="matrix(0.05 0 0 0.05 38.51 43.7098)" font-style="normal" font-weight="normal" font-size="200px" font-family="Arial" >
HO</text>
<path stroke="none" fill="#000000" transform="matrix(0.05 0 0 0.05 -12 -9)" d="M 1482.25,1119.39 L 1481.83,1126.57 L 1475.83,1130.51 L 1307.48,1060.54 L 1337.48,1008.58 L 1482.25,1119.39 Z " />
<text x="0" y="0" stroke="none" fill="#000000" transform="matrix(0.05 0 0 0.05 38.51 72.5098)" font-style="normal" font-weight="normal" font-size="200px" font-family="Arial" >
HO</text>
<path stroke="none" fill="#000000" transform="matrix(0.05 0 0 0.05 -12 -9)" d="M 1475.83,1410.62 L 1481.83,1414.57 L 1482.25,1421.74 L 1336.83,1532.92 L 1306.83,1480.96 L 1475.83,1410.62 Z " />
<text x="0" y="0" stroke="none" fill="#000000" transform="matrix(0.05 0 0 0.05 70.6732 86.9098)" font-style="normal" font-weight="normal" font-size="200px" font-family="Arial" >
OH</text>
<path stroke="none" fill="#000000" transform="matrix(0.05 0 0 0.05 -12 -9)" d="M 1725.25,1608.61 L 1737.25,1608.61 L 1739.43,1620.61 L 1723.07,1620.61 L 1725.25,1608.61 Z " />
<path stroke="none" fill="#000000" transform="matrix(0.05 0 0 0.05 -12 -9)" d="M 1714.34,1668.66 L 1748.16,1668.66 L 1750.34,1680.66 L 1712.16,1680.66 L 1714.34,1668.66 Z " />
<path stroke="none" fill="#000000" transform="matrix(0.05 0 0 0.05 -12 -9)" d="M 1703.43,1728.71 L 1759.07,1728.71 L 1761.25,1740.71 L 1701.25,1740.71 L 1703.43,1728.71 Z " />
<text x="0" y="0" stroke="none" fill="#000000" transform="matrix(0.05 0 0 0.05 50.9808 22.1098)" font-style="normal" font-weight="normal" font-size="200px" font-family="Arial" >
HO</text>
<path stroke="none" fill="#000000" transform="matrix(0.05 0 0 0.05 -12 -9)" d="M 1760.42,704.481 L 1700.34,683.648 L 1569.65,608.192 L 1575.64,597.8 L 1760.42,704.481 Z " />
<path stroke="none" fill="#000000" transform="matrix(0.05 0 0 0.05 -12 -9)" d="M 2433.03,1434.46 L 2439.03,1444.85 L 2429.71,1452.71 L 2421.57,1438.61 L 2433.03,1434.46 Z " />
<path stroke="none" fill="#000000" transform="matrix(0.05 0 0 0.05 -12 -9)" d="M 2374.53,1455.62 L 2391.46,1484.94 L 2382.13,1492.8 L 2363.06,1459.76 L 2374.53,1455.62 Z " />
<path stroke="none" fill="#000000" transform="matrix(0.05 0 0 0.05 -12 -9)" d="M 2316.02,1476.78 L 2343.88,1525.03 L 2334.56,1532.88 L 2304.56,1480.92 L 2316.02,1476.78 Z " />
<path stroke="none" fill="#000000" transform="matrix(0.05 0 0 0.05 -12 -9)" d="M 2479.77,1119.48 L 2479.49,1126.57 L 2473.49,1130.35 L 2224.08,1012.79 L 2236.08,950.338 L 2479.77,1119.48 Z " />
<text x="0" y="0" stroke="none" fill="#000000" transform="matrix(0.05 0 0 0.05 95.6147 29.3098)" font-style="normal" font-weight="normal" font-size="200px" font-family="Arial" >
OH</text>
<path stroke="none" fill="#000000" transform="matrix(0.05 0 0 0.05 -12 -9)" d="M 2236.08,950.338 L 2224.08,1012.79 L 2224.08,801.714 L 2236.08,801.714 L 2236.08,950.338 Z " />
<text x="0" y="0" stroke="none" fill="#000000" transform="matrix(0.05 0 0 0.05 145.498 43.7098)" font-style="normal" font-weight="normal" font-size="200px" font-family="Arial" >
OH</text>
<path stroke="none" fill="#000000" transform="matrix(0.05 0 0 0.05 -12 -9)" d="M 2984.32,1130.52 L 2978.32,1126.57 L 2977.9,1119.39 L 3122.01,1008.97 L 3152.01,1060.93 L 2984.32,1130.52 Z " />
<text x="0" y="0" stroke="none" fill="#000000" transform="matrix(0.05 0 0 0.05 145.498 72.5098)" font-style="normal" font-weight="normal" font-size="200px" font-family="Arial" >
OH</text>
<path stroke="none" fill="#000000" transform="matrix(0.05 0 0 0.05 -12 -9)" d="M 3018.8,1444.86 L 3024.8,1434.47 L 3036.27,1438.6 L 3028.12,1452.73 L 3018.8,1444.86 Z " />
<path stroke="none" fill="#000000" transform="matrix(0.05 0 0 0.05 -12 -9)" d="M 3065.97,1484.71 L 3082.89,1455.4 L 3094.36,1459.53 L 3075.28,1492.57 L 3065.97,1484.71 Z " />
<path stroke="none" fill="#000000" transform="matrix(0.05 0 0 0.05 -12 -9)" d="M 3113.14,1524.55 L 3140.98,1476.32 L 3152.45,1480.46 L 3122.45,1532.42 L 3113.14,1524.55 Z " />
<text x="0" y="0" stroke="none" fill="#000000" transform="matrix(0.05 0 0 0.05 120.556 86.9098)" font-style="normal" font-weight="normal" font-size="200px" font-family="Arial" >
OH</text>
<path stroke="none" fill="#000000" transform="matrix(0.05 0 0 0.05 -12 -9)" d="M 2722.48,1561.78 L 2728.91,1558.57 L 2735.33,1561.78 L 2758.91,1740.71 L 2698.91,1740.71 L 2722.48,1561.78 Z " />
<path stroke="none" fill="#000000" transform="matrix(0.05 0 0 0.05 -12 -9)" d="M 5456.35,1321.59 L 3684.2,1321.59 L 3684.2,1309.59 L 5456.35,1309.59 Z " />
<path stroke="none" fill="#000000" transform="matrix(0.05 0 0 0.05 -12 -9)" d="M 5612.91,1315.59 C 5612.91,1315.59 5432.91,1361.59 5432.91,1361.59 C 5432.91,1361.59 5455.35,1335.72 5455.35,1315.59 C 5455.35,1295.02 5432.91,1268.59 5432.91,1268.59 C 5432.91,1268.59 5612.91,1315.59 5612.91,1315.59 C 5612.91,1315.59 5612.91,1315.59 5612.91,1315.59 " />
<path stroke="#000000" stroke-width="1" fill="none" transform="matrix(0.05 0 0 0.05 -12 -9)" d="M 5612.91,1315.59 C 5612.91,1315.59 5432.91,1361.59 5432.91,1361.59 C 5432.91,1361.59 5455.35,1335.72 5455.35,1315.59 C 5455.35,1295.02 5432.91,1268.59 5432.91,1268.59 C 5432.91,1268.59 5612.91,1315.59 5612.91,1315.59 C 5612.91,1315.59 5612.91,1315.59 5612.91,1315.59 " />
<text x="0" y="0" stroke="none" fill="#000000" transform="matrix(0.05 0 0 0.05 184.91 72.5599)" font-style="normal" font-weight="normal" font-size="200px" font-family="Helvetica" >
β-galactosidase</text>
<path stroke="#000000" stroke-width="12" fill="none" transform="matrix(0.05 0 0 0.05 -12 -9)" d="M 4258.81,985.098 C 4405.79,1186.14 4649.28,1311.98 4898.29,1315.59 " />
<text x="0" y="0" stroke="none" fill="#000000" transform="matrix(0.05 0 0 0.05 192.003 34.575)" font-style="normal" font-weight="normal" font-size="200px" font-family="Helvetica" >
H</text>
<text x="0" y="0" stroke="none" fill="#000000" transform="matrix(0.05 0 0 0.05 199.224 36.8748)" font-style="normal" font-weight="normal" font-size="150px" font-family="Helvetica" >
2</text>
<text x="0" y="0" stroke="none" fill="#000000" transform="matrix(0.05 0 0 0.05 203.395 34.575)" font-style="normal" font-weight="normal" font-size="200px" font-family="Helvetica" >
O</text>
<text x="0" y="0" stroke="none" fill="#000000" transform="matrix(0.05 0 0 0.05 324.996 50.3254)" font-style="normal" font-weight="normal" font-size="200px" font-family="Arial" >
O</text>
<path stroke="none" fill="#000000" transform="matrix(0.05 0 0 0.05 -12 -9)" d="M 6312.88,1118.83 L 6318.88,1114.88 L 6324.88,1118.34 L 6324.88,1399.41 L 6318.88,1402.88 L 6312.88,1398.93 L 6312.88,1118.83 Z " />
<path stroke="none" fill="#000000" transform="matrix(0.05 0 0 0.05 -12 -9)" d="M 6319.3,1410.05 L 6318.88,1402.88 L 6324.88,1399.41 L 6568.3,1539.95 L 6568.3,1553.8 L 6319.3,1410.05 Z " />
<path stroke="none" fill="#000000" transform="matrix(0.05 0 0 0.05 -12 -9)" d="M 6568.3,1553.8 L 6568.3,1539.95 L 6811.71,1399.41 L 6817.71,1402.88 L 6817.29,1410.05 L 6568.3,1553.8 Z " />
<path stroke="none" fill="#000000" transform="matrix(0.05 0 0 0.05 -12 -9)" d="M 6823.71,1398.93 L 6817.71,1402.88 L 6811.71,1399.41 L 6811.71,1222.02 L 6823.71,1222.02 L 6823.71,1398.93 Z " />
<path stroke="none" fill="#000000" transform="matrix(0.05 0 0 0.05 -12 -9)" d="M 6730.42,1057.55 L 6724.42,1067.94 L 6568.3,977.804 L 6568.3,970.876 L 6574.57,967.571 L 6730.42,1057.55 Z " />
<path stroke="none" fill="#000000" transform="matrix(0.05 0 0 0.05 -12 -9)" d="M 6562.02,967.571 L 6568.3,970.876 L 6568.3,977.804 L 6324.88,1118.34 L 6318.88,1114.88 L 6319.3,1107.71 L 6562.02,967.571 Z " />
<text x="0" y="0" stroke="none" fill="#000000" transform="matrix(0.05 0 0 0.05 427.66 50.3254)" font-style="normal" font-weight="normal" font-size="200px" font-family="Arial" >
O</text>
<path stroke="none" fill="#000000" transform="matrix(0.05 0 0 0.05 -12 -9)" d="M 8366.16,1111.41 L 8378.16,1118.34 L 8378.16,1399.41 L 8372.16,1402.88 L 8366.16,1398.93 L 8366.16,1111.41 Z " />
<path stroke="none" fill="#000000" transform="matrix(0.05 0 0 0.05 -12 -9)" d="M 8372.58,1410.05 L 8372.16,1402.88 L 8378.16,1399.41 L 8621.57,1539.95 L 8621.57,1553.8 L 8372.58,1410.05 Z " />
<path stroke="none" fill="#000000" transform="matrix(0.05 0 0 0.05 -12 -9)" d="M 8621.57,1553.8 L 8621.57,1539.95 L 8864.99,1399.41 L 8870.99,1402.88 L 8870.57,1410.05 L 8621.57,1553.8 Z " />
<path stroke="none" fill="#000000" transform="matrix(0.05 0 0 0.05 -12 -9)" d="M 8876.99,1398.93 L 8870.99,1402.88 L 8864.99,1399.41 L 8864.99,1222.02 L 8876.99,1222.02 L 8876.99,1398.93 Z " />
<path stroke="none" fill="#000000" transform="matrix(0.05 0 0 0.05 -12 -9)" d="M 8783.7,1057.55 L 8777.7,1067.94 L 8621.57,977.804 L 8621.57,970.876 L 8627.85,967.571 L 8783.7,1057.55 Z " />
<path stroke="none" fill="#000000" transform="matrix(0.05 0 0 0.05 -12 -9)" d="M 8615.3,967.571 L 8621.57,970.876 L 8621.57,977.804 L 8378.16,1118.34 L 8366.16,1111.41 L 8615.3,967.571 Z " />
<text x="0" y="0" stroke="none" fill="#000000" transform="matrix(0.05 0 0 0.05 280.362 43.1254)" font-style="normal" font-weight="normal" font-size="200px" font-family="Arial" >
HO</text>
<path stroke="none" fill="#000000" transform="matrix(0.05 0 0 0.05 -12 -9)" d="M 6319.3,1107.71 L 6318.88,1114.88 L 6312.88,1118.83 L 6144.53,1048.85 L 6174.53,996.893 L 6319.3,1107.71 Z " />
<text x="0" y="0" stroke="none" fill="#000000" transform="matrix(0.05 0 0 0.05 280.362 71.9253)" font-style="normal" font-weight="normal" font-size="200px" font-family="Arial" >
HO</text>
<path stroke="none" fill="#000000" transform="matrix(0.05 0 0 0.05 -12 -9)" d="M 6312.88,1398.93 L 6318.88,1402.88 L 6319.3,1410.05 L 6173.88,1521.23 L 6143.88,1469.27 L 6312.88,1398.93 Z " />
<text x="0" y="0" stroke="none" fill="#000000" transform="matrix(0.05 0 0 0.05 312.526 86.3253)" font-style="normal" font-weight="normal" font-size="200px" font-family="Arial" >
OH</text>
<path stroke="none" fill="#000000" transform="matrix(0.05 0 0 0.05 -12 -9)" d="M 6562.3,1596.92 L 6574.3,1596.92 L 6576.48,1608.92 L 6560.12,1608.92 L 6562.3,1596.92 Z " />
<path stroke="none" fill="#000000" transform="matrix(0.05 0 0 0.05 -12 -9)" d="M 6551.39,1656.97 L 6585.21,1656.97 L 6587.39,1668.97 L 6549.21,1668.97 L 6551.39,1656.97 Z " />
<path stroke="none" fill="#000000" transform="matrix(0.05 0 0 0.05 -12 -9)" d="M 6540.48,1717.02 L 6596.12,1717.02 L 6598.3,1729.02 L 6538.3,1729.02 L 6540.48,1717.02 Z " />
<text x="0" y="0" stroke="none" fill="#000000" transform="matrix(0.05 0 0 0.05 337.467 71.9253)" font-style="normal" font-weight="normal" font-size="200px" font-family="Arial" >
OH</text>
<path stroke="none" fill="#000000" transform="matrix(0.05 0 0 0.05 -12 -9)" d="M 6817.29,1410.05 L 6817.71,1402.88 L 6823.71,1398.93 L 6991.84,1468.77 L 6961.84,1520.73 L 6817.29,1410.05 Z " />
<path stroke="none" fill="#000000" transform="matrix(0.05 0 0 0.05 -12 -9)" d="M 6574.57,967.571 L 6568.3,970.876 L 6562.02,967.571 L 6537.39,671.959 L 6597.47,692.792 L 6574.57,967.571 Z " />
<path stroke="none" fill="#000000" transform="matrix(0.05 0 0 0.05 -12 -9)" d="M 8627.85,967.571 L 8621.57,970.876 L 8615.3,967.571 L 8590.66,671.959 L 8650.75,692.792 L 8627.85,967.571 Z " />
<text x="0" y="0" stroke="none" fill="#000000" transform="matrix(0.05 0 0 0.05 383.026 43.1254)" font-style="normal" font-weight="normal" font-size="200px" font-family="Arial" >
HO</text>
<path stroke="none" fill="#000000" transform="matrix(0.05 0 0 0.05 -12 -9)" d="M 8331.86,1084.68 L 8325.86,1095.07 L 8314.39,1090.93 L 8322.54,1076.82 L 8331.86,1084.68 Z " />
<path stroke="none" fill="#000000" transform="matrix(0.05 0 0 0.05 -12 -9)" d="M 8284.49,1044.72 L 8267.56,1074.03 L 8256.1,1069.89 L 8275.17,1036.86 L 8284.49,1044.72 Z " />
<path stroke="none" fill="#000000" transform="matrix(0.05 0 0 0.05 -12 -9)" d="M 8237.12,1004.75 L 8209.27,1052.99 L 8197.81,1048.85 L 8227.81,996.893 L 8237.12,1004.75 Z " />
<text x="0" y="0" stroke="none" fill="#000000" transform="matrix(0.05 0 0 0.05 383.026 71.9253)" font-style="normal" font-weight="normal" font-size="200px" font-family="Arial" >
HO</text>
<path stroke="none" fill="#000000" transform="matrix(0.05 0 0 0.05 -12 -9)" d="M 8366.16,1398.93 L 8372.16,1402.88 L 8372.58,1410.05 L 8227.16,1521.23 L 8197.16,1469.27 L 8366.16,1398.93 Z " />
<text x="0" y="0" stroke="none" fill="#000000" transform="matrix(0.05 0 0 0.05 415.19 86.3253)" font-style="normal" font-weight="normal" font-size="200px" font-family="Arial" >
OH</text>
<path stroke="none" fill="#000000" transform="matrix(0.05 0 0 0.05 -12 -9)" d="M 8615.57,1596.92 L 8627.57,1596.92 L 8629.75,1608.92 L 8613.39,1608.92 L 8615.57,1596.92 Z " />
<path stroke="none" fill="#000000" transform="matrix(0.05 0 0 0.05 -12 -9)" d="M 8604.66,1656.97 L 8638.48,1656.97 L 8640.66,1668.97 L 8602.48,1668.97 L 8604.66,1656.97 Z " />
<path stroke="none" fill="#000000" transform="matrix(0.05 0 0 0.05 -12 -9)" d="M 8593.75,1717.02 L 8649.39,1717.02 L 8651.57,1729.02 L 8591.57,1729.02 L 8593.75,1717.02 Z " />
<text x="0" y="0" stroke="none" fill="#000000" transform="matrix(0.05 0 0 0.05 440.131 71.9253)" font-style="normal" font-weight="normal" font-size="200px" font-family="Arial" >
OH</text>
<path stroke="none" fill="#000000" transform="matrix(0.05 0 0 0.05 -12 -9)" d="M 8870.57,1410.05 L 8870.99,1402.88 L 8876.99,1398.93 L 9045.12,1468.77 L 9015.12,1520.73 L 8870.57,1410.05 Z " />
<text x="0" y="0" stroke="none" fill="#000000" transform="matrix(0.05 0 0 0.05 292.833 21.5254)" font-style="normal" font-weight="normal" font-size="200px" font-family="Arial" >
HO</text>
<path stroke="none" fill="#000000" transform="matrix(0.05 0 0 0.05 -12 -9)" d="M 6597.47,692.792 L 6537.39,671.959 L 6406.69,596.503 L 6412.69,586.111 L 6597.47,692.792 Z " />
<text x="0" y="0" stroke="none" fill="#000000" transform="matrix(0.05 0 0 0.05 395.497 21.5254)" font-style="normal" font-weight="normal" font-size="200px" font-family="Arial" >
HO</text>
<path stroke="none" fill="#000000" transform="matrix(0.05 0 0 0.05 -12 -9)" d="M 8650.75,692.792 L 8590.66,671.959 L 8459.97,596.503 L 8465.97,586.111 L 8650.75,692.792 Z " />
<text x="0" y="0" stroke="none" fill="#000000" transform="matrix(0.05 0 0 0.05 83.5469 106.485)" font-style="normal" font-weight="normal" font-size="200px" font-family="Arial" >
lactose</text>
<text x="0" y="0" stroke="none" fill="#000000" transform="matrix(0.05 0 0 0.05 391.891 105.552)" font-style="normal" font-weight="normal" font-size="200px" font-family="Arial" >
β-D-glucose</text>
<text x="0" y="0" stroke="none" fill="#000000" transform="matrix(0.05 0 0 0.05 285.057 104.968)" font-style="normal" font-weight="normal" font-size="200px" font-family="Arial" >
β-D-galactose</text>
<path stroke="#000000" stroke-width="12" fill="none" transform="matrix(0.05 0 0 0.05 -12 -9)" d="M 297.418,2455.37 C 297.418,2455.37 297.418,306.548 297.418,306.548 C 297.418,266.807 329.676,234.549 369.417,234.549 C 369.417,234.549 9646.82,234.549 9646.82,234.549 C 9686.56,234.549 9718.82,266.807 9718.82,306.548 C 9718.82,306.548 9718.82,2455.37 9718.82,2455.37 C 9718.82,2495.11 9686.56,2527.37 9646.82,2527.37 C 9646.82,2527.37 369.417,2527.37 369.417,2527.37 C 329.676,2527.37 297.418,2495.11 297.418,2455.37 " />
<path stroke="#000000" stroke-width="12" fill="none" transform="matrix(0.05 0 0 0.05 -12 -9)" d="M 297.418,5095.59 C 297.418,5095.59 297.418,2891.18 297.418,2891.18 C 297.418,2851.44 329.676,2819.18 369.417,2819.18 C 369.417,2819.18 9646.82,2819.18 9646.82,2819.18 C 9686.56,2819.18 9718.82,2851.44 9718.82,2891.18 C 9718.82,2891.18 9718.82,5095.59 9718.82,5095.59 C 9718.82,5135.33 9686.56,5167.58 9646.82,5167.58 C 9646.82,5167.58 369.417,5167.58 369.417,5167.58 C 329.676,5167.58 297.418,5135.33 297.418,5095.59 " />
<text x="0" y="0" stroke="none" fill="#000000" transform="matrix(0.05 0 0 0.05 348.7 184.593)" font-style="normal" font-weight="normal" font-size="280px" font-family="Helvetica" >
+</text>
</svg>
