<?xml version="1.0" standalone="no" ?>
<!DOCTYPE svg PUBLIC "-//W3C//DTD SVG 1.1//EN" "http://www.w3.org/Graphics/SVG/1.1/DTD/svg11.dtd">
<svg width="477px" height="252px" viewBox="0 0 477 252" style="background-color: #ffffff00" xmlns="http://www.w3.org/2000/svg" xmlns:xlink="http://www.w3.org/1999/xlink" version="1.1" >
<path stroke="none" fill="#fdff95" transform="matrix(0.05 0 0 0.05 -12 -9)" d="M 7680.6,4324.4 C 7680.6,4324.4 7680.6,3204.8 7680.6,3204.8 C 7680.6,3165.06 7712.86,3132.8 7752.6,3132.8 C 7752.6,3132.8 9117.4,3132.8 9117.4,3132.8 C 9157.14,3132.8 9189.4,3165.06 9189.4,3204.8 C 9189.4,3204.8 9189.4,4324.4 9189.4,4324.4 C 9189.4,4364.14 9157.14,4396.4 9117.4,4396.4 C 9117.4,4396.4 7752.6,4396.4 7752.6,4396.4 C 7712.86,4396.4 7680.6,4364.14 7680.6,4324.4 " />
<path stroke="#fdff95" stroke-width="1" fill="none" transform="matrix(0.05 0 0 0.05 -12 -9)" d="M 7680.6,4324.4 C 7680.6,4324.4 7680.6,3204.8 7680.6,3204.8 C 7680.6,3165.06 7712.86,3132.8 7752.6,3132.8 C 7752.6,3132.8 9117.4,3132.8 9117.4,3132.8 C 9157.14,3132.8 9189.4,3165.06 9189.4,3204.8 C 9189.4,3204.8 9189.4,4324.4 9189.4,4324.4 C 9189.4,4364.14 9157.14,4396.4 9117.4,4396.4 C 9117.4,4396.4 7752.6,4396.4 7752.6,4396.4 C 7712.86,4396.4 7680.6,4364.14 7680.6,4324.4 " />
<text x="0" y="0" stroke="none" fill="#000000" transform="matrix(0.05 0 0 0.05 82.0608 178.152)" font-style="normal" font-weight="normal" font-size="200px" font-family="Arial" >
O</text>
<path stroke="none" fill="#000000" transform="matrix(0.05 0 0 0.05 -12 -9)" d="M 1454.2,3675.35 L 1460.2,3671.4 L 1466.2,3674.86 L 1466.2,3955.94 L 1460.2,3959.4 L 1454.2,3955.45 L 1454.2,3675.35 Z " />
<path stroke="none" fill="#000000" transform="matrix(0.05 0 0 0.05 -12 -9)" d="M 1460.62,3966.57 L 1460.2,3959.4 L 1466.2,3955.94 L 1709.6,4096.47 L 1709.6,4110.33 L 1460.62,3966.57 Z " />
<path stroke="none" fill="#000000" transform="matrix(0.05 0 0 0.05 -12 -9)" d="M 1709.6,4110.33 L 1709.6,4096.47 L 1953,3955.94 L 1959,3959.4 L 1958.58,3966.57 L 1709.6,4110.33 Z " />
<path stroke="none" fill="#000000" transform="matrix(0.05 0 0 0.05 -12 -9)" d="M 1965,3955.45 L 1959,3959.4 L 1953,3955.94 L 1953,3778.55 L 1965,3778.55 L 1965,3955.45 Z " />
<path stroke="none" fill="#000000" transform="matrix(0.05 0 0 0.05 -12 -9)" d="M 1871.71,3614.07 L 1865.71,3624.47 L 1709.6,3534.33 L 1709.6,3527.4 L 1715.88,3524.09 L 1871.71,3614.07 Z " />
<path stroke="none" fill="#000000" transform="matrix(0.05 0 0 0.05 -12 -9)" d="M 1703.32,3524.09 L 1709.6,3527.4 L 1709.6,3534.33 L 1466.2,3674.86 L 1460.2,3671.4 L 1460.62,3664.23 L 1703.32,3524.09 Z " />
<text x="0" y="0" stroke="none" fill="#000000" transform="matrix(0.05 0 0 0.05 94.5308 199.752)" font-style="normal" font-weight="normal" font-size="200px" font-family="Arial" >
O</text>
<path stroke="none" fill="#000000" transform="matrix(0.05 0 0 0.05 -12 -9)" d="M 1958.58,3966.57 L 1959,3959.4 L 1965,3955.45 L 2133.11,4025.29 L 2103.11,4077.25 L 1958.58,3966.57 Z " />
<path stroke="none" fill="#000000" transform="matrix(0.05 0 0 0.05 -12 -9)" d="M 2300.88,4056.93 L 2294.88,4046.54 L 2451.8,3955.94 L 2457.8,3959.4 L 2457.8,3966.33 L 2300.88,4056.93 Z " />
<path stroke="none" fill="#000000" transform="matrix(0.05 0 0 0.05 -12 -9)" d="M 2457.8,3966.33 L 2457.8,3959.4 L 2463.8,3955.94 L 2707.2,4096.47 L 2707.2,4103.4 L 2701.2,4106.86 L 2457.8,3966.33 Z " />
<path stroke="none" fill="#000000" transform="matrix(0.05 0 0 0.05 -12 -9)" d="M 2506.64,3934.67 L 2512.64,3924.28 L 2710.21,4038.35 L 2704.21,4048.74 L 2506.64,3934.67 Z " />
<path stroke="none" fill="#000000" transform="matrix(0.05 0 0 0.05 -12 -9)" d="M 2713.2,4106.87 L 2707.2,4103.4 L 2707.2,4096.47 L 2950.8,3955.93 L 2962.8,3962.87 L 2713.2,4106.87 Z " />
<path stroke="none" fill="#000000" transform="matrix(0.05 0 0 0.05 -12 -9)" d="M 2962.8,3962.87 L 2950.8,3955.93 L 2950.8,3674.87 L 2962.8,3667.93 L 2962.8,3962.87 Z " />
<path stroke="none" fill="#000000" transform="matrix(0.05 0 0 0.05 -12 -9)" d="M 2910.96,3929.46 L 2898.96,3929.46 L 2898.96,3701.34 L 2910.96,3701.34 L 2910.96,3929.46 Z " />
<path stroke="none" fill="#000000" transform="matrix(0.05 0 0 0.05 -12 -9)" d="M 2962.8,3667.93 L 2950.8,3674.87 L 2707.2,3534.33 L 2707.2,3520.47 L 2962.8,3667.93 Z " />
<path stroke="none" fill="#000000" transform="matrix(0.05 0 0 0.05 -12 -9)" d="M 2707.2,3520.47 L 2707.2,3534.33 L 2463.8,3674.86 L 2451.8,3667.94 L 2707.2,3520.47 Z " />
<path stroke="none" fill="#000000" transform="matrix(0.05 0 0 0.05 -12 -9)" d="M 2704.21,3582.06 L 2710.21,3592.45 L 2512.64,3706.52 L 2506.64,3696.13 L 2704.21,3582.06 Z " />
<path stroke="none" fill="#000000" transform="matrix(0.05 0 0 0.05 -12 -9)" d="M 2451.8,3667.94 L 2463.8,3674.86 L 2463.8,3955.94 L 2457.8,3959.4 L 2451.8,3955.94 L 2451.8,3667.94 Z " />
<text x="0" y="0" stroke="none" fill="#000000" transform="matrix(0.05 0 0 0.05 37.4292 170.952)" font-style="normal" font-weight="normal" font-size="200px" font-family="Arial" >
HO</text>
<path stroke="none" fill="#000000" transform="matrix(0.05 0 0 0.05 -12 -9)" d="M 1460.62,3664.23 L 1460.2,3671.4 L 1454.2,3675.35 L 1286.61,3605.81 L 1316.61,3553.85 L 1460.62,3664.23 Z " />
<text x="0" y="0" stroke="none" fill="#000000" transform="matrix(0.05 0 0 0.05 37.4292 199.752)" font-style="normal" font-weight="normal" font-size="200px" font-family="Arial" >
HO</text>
<path stroke="none" fill="#000000" transform="matrix(0.05 0 0 0.05 -12 -9)" d="M 1454.2,3955.45 L 1460.2,3959.4 L 1460.62,3966.57 L 1315.97,4077.32 L 1285.96,4025.36 L 1454.2,3955.45 Z " />
<text x="0" y="0" stroke="none" fill="#000000" transform="matrix(0.05 0 0 0.05 69.5908 214.152)" font-style="normal" font-weight="normal" font-size="200px" font-family="Arial" >
OH</text>
<path stroke="none" fill="#000000" transform="matrix(0.05 0 0 0.05 -12 -9)" d="M 1703.6,4153.44 L 1715.6,4153.44 L 1717.78,4165.44 L 1701.42,4165.44 L 1703.6,4153.44 Z " />
<path stroke="none" fill="#000000" transform="matrix(0.05 0 0 0.05 -12 -9)" d="M 1692.69,4213.49 L 1726.51,4213.49 L 1728.69,4225.49 L 1690.51,4225.49 L 1692.69,4213.49 Z " />
<path stroke="none" fill="#000000" transform="matrix(0.05 0 0 0.05 -12 -9)" d="M 1681.78,4273.55 L 1737.42,4273.55 L 1739.6,4285.55 L 1679.6,4285.55 L 1681.78,4273.55 Z " />
<path stroke="none" fill="#000000" transform="matrix(0.05 0 0 0.05 -12 -9)" d="M 1715.88,3524.09 L 1709.6,3527.4 L 1703.32,3524.09 L 1678.69,3228.48 L 1738.77,3249.32 L 1715.88,3524.09 Z " />
<text x="0" y="0" stroke="none" fill="#000000" transform="matrix(0.05 0 0 0.05 49.8992 149.352)" font-style="normal" font-weight="normal" font-size="200px" font-family="Arial" >
HO</text>
<path stroke="none" fill="#000000" transform="matrix(0.05 0 0 0.05 -12 -9)" d="M 1738.77,3249.32 L 1678.69,3228.48 L 1547.26,3152.6 L 1553.26,3142.2 L 1738.77,3249.32 Z " />
<text x="0" y="0" stroke="none" fill="#000000" transform="matrix(0.05 0 0 0.05 119.749 214.152)" font-style="normal" font-weight="normal" font-size="200px" font-family="Arial" >
NO</text>
<text x="0" y="0" stroke="none" fill="#000000" transform="matrix(0.05 0 0 0.05 134.749 216.271)" font-style="normal" font-weight="normal" font-size="150px" font-family="Arial" >
2</text>
<path stroke="none" fill="#000000" transform="matrix(0.05 0 0 0.05 -12 -9)" d="M 2701.2,4106.86 L 2707.2,4103.4 L 2713.2,4106.87 L 2713.2,4288.55 L 2701.2,4288.55 L 2701.2,4106.86 Z " />
<path stroke="none" fill="#000000" transform="matrix(0.05 0 0 0.05 -12 -9)" d="M 5075.24,3886.4 L 3303,3886.4 L 3303,3874.4 L 5075.24,3874.4 Z " />
<path stroke="none" fill="#000000" transform="matrix(0.05 0 0 0.05 -12 -9)" d="M 5231.8,3880.4 C 5231.8,3880.4 5051.8,3926.4 5051.8,3926.4 C 5051.8,3926.4 5074.24,3900.53 5074.24,3880.4 C 5074.24,3859.83 5051.8,3833.4 5051.8,3833.4 C 5051.8,3833.4 5231.8,3880.4 5231.8,3880.4 C 5231.8,3880.4 5231.8,3880.4 5231.8,3880.4 " />
<path stroke="#000000" stroke-width="1" fill="none" transform="matrix(0.05 0 0 0.05 -12 -9)" d="M 5231.8,3880.4 C 5231.8,3880.4 5051.8,3926.4 5051.8,3926.4 C 5051.8,3926.4 5074.24,3900.53 5074.24,3880.4 C 5074.24,3859.83 5051.8,3833.4 5051.8,3833.4 C 5051.8,3833.4 5231.8,3880.4 5231.8,3880.4 C 5231.8,3880.4 5231.8,3880.4 5231.8,3880.4 " />
<text x="0" y="0" stroke="none" fill="#000000" transform="matrix(0.05 0 0 0.05 165.85 200.8)" font-style="normal" font-weight="normal" font-size="200px" font-family="Helvetica" >
β-galactosidase</text>
<path stroke="#000000" stroke-width="12" fill="none" transform="matrix(0.05 0 0 0.05 -12 -9)" d="M 3877.71,3549.91 C 4024.7,3750.93 4268.2,3876.74 4517.2,3880.32 " />
<text x="0" y="0" stroke="none" fill="#000000" transform="matrix(0.05 0 0 0.05 172.939 162.816)" font-style="normal" font-weight="normal" font-size="200px" font-family="Helvetica" >
H</text>
<text x="0" y="0" stroke="none" fill="#000000" transform="matrix(0.05 0 0 0.05 180.161 165.116)" font-style="normal" font-weight="normal" font-size="150px" font-family="Helvetica" >
2</text>
<text x="0" y="0" stroke="none" fill="#000000" transform="matrix(0.05 0 0 0.05 184.332 162.816)" font-style="normal" font-weight="normal" font-size="200px" font-family="Helvetica" >
O</text>
<text x="0" y="0" stroke="none" fill="#000000" transform="matrix(0.05 0 0 0.05 308.041 179.152)" font-style="normal" font-weight="normal" font-size="200px" font-family="Arial" >
O</text>
<path stroke="none" fill="#000000" transform="matrix(0.05 0 0 0.05 -12 -9)" d="M 5973.8,3695.35 L 5979.8,3691.4 L 5985.8,3694.86 L 5985.8,3975.94 L 5979.8,3979.4 L 5973.8,3975.45 L 5973.8,3695.35 Z " />
<path stroke="none" fill="#000000" transform="matrix(0.05 0 0 0.05 -12 -9)" d="M 5980.22,3986.57 L 5979.8,3979.4 L 5985.8,3975.94 L 6229.2,4116.47 L 6229.2,4130.33 L 5980.22,3986.57 Z " />
<path stroke="none" fill="#000000" transform="matrix(0.05 0 0 0.05 -12 -9)" d="M 6229.2,4130.33 L 6229.2,4116.47 L 6472.6,3975.94 L 6478.6,3979.4 L 6478.18,3986.57 L 6229.2,4130.33 Z " />
<path stroke="none" fill="#000000" transform="matrix(0.05 0 0 0.05 -12 -9)" d="M 6484.6,3975.45 L 6478.6,3979.4 L 6472.6,3975.94 L 6472.6,3798.55 L 6484.6,3798.55 L 6484.6,3975.45 Z " />
<path stroke="none" fill="#000000" transform="matrix(0.05 0 0 0.05 -12 -9)" d="M 6391.31,3634.07 L 6385.31,3644.47 L 6229.2,3554.33 L 6229.2,3547.4 L 6235.48,3544.09 L 6391.31,3634.07 Z " />
<path stroke="none" fill="#000000" transform="matrix(0.05 0 0 0.05 -12 -9)" d="M 6222.92,3544.09 L 6229.2,3547.4 L 6229.2,3554.33 L 5985.8,3694.86 L 5979.8,3691.4 L 5980.22,3684.23 L 6222.92,3544.09 Z " />
<path stroke="none" fill="#000000" transform="matrix(0.05 0 0 0.05 -12 -9)" d="M 8383.6,3721.33 L 8383.6,3714.4 L 8389.6,3710.94 L 8633,3851.47 L 8633,3858.4 L 8627,3861.86 L 8383.6,3721.33 Z " />
<path stroke="none" fill="#000000" transform="matrix(0.05 0 0 0.05 -12 -9)" d="M 8432.44,3689.67 L 8438.44,3679.28 L 8636,3793.35 L 8630,3803.74 L 8432.44,3689.67 Z " />
<path stroke="none" fill="#000000" transform="matrix(0.05 0 0 0.05 -12 -9)" d="M 8639,3861.86 L 8633,3858.4 L 8633,3851.47 L 8876.4,3710.94 L 8888.4,3717.86 L 8639,3861.86 Z " />
<path stroke="none" fill="#000000" transform="matrix(0.05 0 0 0.05 -12 -9)" d="M 8888.4,3717.86 L 8876.4,3710.94 L 8876.4,3429.86 L 8888.4,3422.94 L 8888.4,3717.86 Z " />
<path stroke="none" fill="#000000" transform="matrix(0.05 0 0 0.05 -12 -9)" d="M 8836.56,3684.47 L 8824.56,3684.47 L 8824.56,3456.33 L 8836.56,3456.33 L 8836.56,3684.47 Z " />
<path stroke="none" fill="#000000" transform="matrix(0.05 0 0 0.05 -12 -9)" d="M 8888.4,3422.94 L 8876.4,3429.86 L 8633,3289.33 L 8633,3275.47 L 8888.4,3422.94 Z " />
<path stroke="none" fill="#000000" transform="matrix(0.05 0 0 0.05 -12 -9)" d="M 8633,3275.47 L 8633,3289.33 L 8389.6,3429.86 L 8377.6,3422.94 L 8633,3275.47 Z " />
<path stroke="none" fill="#000000" transform="matrix(0.05 0 0 0.05 -12 -9)" d="M 8630,3337.06 L 8636,3347.45 L 8438.44,3461.52 L 8432.44,3451.13 L 8630,3337.06 Z " />
<path stroke="none" fill="#000000" transform="matrix(0.05 0 0 0.05 -12 -9)" d="M 8377.6,3422.94 L 8389.6,3429.86 L 8389.6,3710.94 L 8383.6,3714.4 L 8377.6,3710.94 L 8377.6,3422.94 Z " />
<text x="0" y="0" stroke="none" fill="#000000" transform="matrix(0.05 0 0 0.05 263.409 171.952)" font-style="normal" font-weight="normal" font-size="200px" font-family="Arial" >
HO</text>
<path stroke="none" fill="#000000" transform="matrix(0.05 0 0 0.05 -12 -9)" d="M 5980.22,3684.23 L 5979.8,3691.4 L 5973.8,3695.35 L 5805.46,3625.38 L 5835.46,3573.42 L 5980.22,3684.23 Z " />
<text x="0" y="0" stroke="none" fill="#000000" transform="matrix(0.05 0 0 0.05 263.409 200.752)" font-style="normal" font-weight="normal" font-size="200px" font-family="Arial" >
HO</text>
<path stroke="none" fill="#000000" transform="matrix(0.05 0 0 0.05 -12 -9)" d="M 5973.8,3975.45 L 5979.8,3979.4 L 5980.22,3986.57 L 5834.82,4097.75 L 5804.81,4045.79 L 5973.8,3975.45 Z " />
<text x="0" y="0" stroke="none" fill="#000000" transform="matrix(0.05 0 0 0.05 295.571 215.152)" font-style="normal" font-weight="normal" font-size="200px" font-family="Arial" >
OH</text>
<path stroke="none" fill="#000000" transform="matrix(0.05 0 0 0.05 -12 -9)" d="M 6223.2,4173.44 L 6235.2,4173.44 L 6237.38,4185.44 L 6221.02,4185.44 L 6223.2,4173.44 Z " />
<path stroke="none" fill="#000000" transform="matrix(0.05 0 0 0.05 -12 -9)" d="M 6212.29,4233.49 L 6246.11,4233.49 L 6248.29,4245.49 L 6210.11,4245.49 L 6212.29,4233.49 Z " />
<path stroke="none" fill="#000000" transform="matrix(0.05 0 0 0.05 -12 -9)" d="M 6201.38,4293.55 L 6257.02,4293.55 L 6259.2,4305.55 L 6199.2,4305.55 L 6201.38,4293.55 Z " />
<path stroke="none" fill="#000000" transform="matrix(0.05 0 0 0.05 -12 -9)" d="M 6235.48,3544.09 L 6229.2,3547.4 L 6222.92,3544.09 L 6198.29,3248.48 L 6258.37,3269.32 L 6235.48,3544.09 Z " />
<text x="0" y="0" stroke="none" fill="#000000" transform="matrix(0.05 0 0 0.05 275.879 150.352)" font-style="normal" font-weight="normal" font-size="200px" font-family="Arial" >
HO</text>
<path stroke="none" fill="#000000" transform="matrix(0.05 0 0 0.05 -12 -9)" d="M 6258.37,3269.32 L 6198.29,3248.48 L 6067.61,3173.03 L 6073.61,3162.64 L 6258.37,3269.32 Z " />
<text x="0" y="0" stroke="none" fill="#000000" transform="matrix(0.05 0 0 0.05 416.039 201.902)" font-style="normal" font-weight="normal" font-size="200px" font-family="Arial" >
NO</text>
<text x="0" y="0" stroke="none" fill="#000000" transform="matrix(0.05 0 0 0.05 431.039 204.021)" font-style="normal" font-weight="normal" font-size="150px" font-family="Arial" >
2</text>
<path stroke="none" fill="#000000" transform="matrix(0.05 0 0 0.05 -12 -9)" d="M 8627,3861.86 L 8633,3858.4 L 8639,3861.86 L 8639,4043.55 L 8627,4043.55 L 8627,3861.86 Z " />
<text x="0" y="0" stroke="none" fill="#000000" transform="matrix(0.05 0 0 0.05 320.511 200.752)" font-style="normal" font-weight="normal" font-size="200px" font-family="Arial" >
OH</text>
<path stroke="none" fill="#000000" transform="matrix(0.05 0 0 0.05 -12 -9)" d="M 6478.18,3986.57 L 6478.6,3979.4 L 6484.6,3975.45 L 6653.46,4045.72 L 6623.46,4097.68 L 6478.18,3986.57 Z " />
<text x="0" y="0" stroke="none" fill="#000000" transform="matrix(0.05 0 0 0.05 383.599 187.502)" font-style="normal" font-weight="normal" font-size="200px" font-family="Arial" >
HO</text>
<path stroke="none" fill="#000000" transform="matrix(0.05 0 0 0.05 -12 -9)" d="M 8377.6,3710.94 L 8383.6,3714.4 L 8383.6,3721.33 L 8226.61,3811.97 L 8220.61,3801.58 L 8377.6,3710.94 Z " />
<text x="0" y="0" stroke="none" fill="#000000" transform="matrix(0.05 0 0 0.05 19.1166 231.77)" font-style="italic" font-weight="normal" font-size="200px" font-family="Arial" >
ortho</text>
<text x="0" y="0" stroke="none" fill="#000000" transform="matrix(0.05 0 0 0.05 41.9095 231.77)" font-style="normal" font-weight="normal" font-size="200px" font-family="Arial" >
-nitrophenyl-β-galactoside</text>
<text x="0" y="0" stroke="none" fill="#000000" transform="matrix(0.05 0 0 0.05 70.0858 243.269)" font-style="normal" font-weight="normal" font-size="200px" font-family="Arial" >
(ONPG)</text>
<text x="0" y="0" stroke="none" fill="#000000" transform="matrix(0.05 0 0 0.05 266.499 237.52)" font-style="normal" font-weight="normal" font-size="200px" font-family="Arial" >
β-D-galactose</text>
<text x="0" y="0" stroke="none" fill="#000000" transform="matrix(0.05 0 0 0.05 371.907 237.52)" font-style="italic" font-weight="normal" font-size="200px" font-family="Arial" >
ortho</text>
<text x="0" y="0" stroke="none" fill="#000000" transform="matrix(0.05 0 0 0.05 394.7 237.52)" font-style="normal" font-weight="normal" font-size="200px" font-family="Arial" >
-nitrophenol</text>
<text x="0" y="0" stroke="none" fill="#000000" transform="matrix(0.05 0 0 0.05 363.55 54.56)" font-style="normal" font-weight="normal" font-size="280px" font-family="Helvetica" >
+</text>
<text x="0" y="0" stroke="none" fill="#000000" transform="matrix(0.05 0 0 0.05 83.1408 50.9115)" font-style="normal" font-weight="normal" font-size="200px" font-family="Arial" >
O</text>
<path stroke="none" fill="#000000" transform="matrix(0.05 0 0 0.05 -12 -9)" d="M 1475.8,1130.55 L 1481.8,1126.6 L 1487.8,1130.06 L 1487.8,1411.14 L 1481.8,1414.6 L 1475.8,1410.65 L 1475.8,1130.55 Z " />
<path stroke="none" fill="#000000" transform="matrix(0.05 0 0 0.05 -12 -9)" d="M 1482.22,1421.77 L 1481.8,1414.6 L 1487.8,1411.14 L 1731.2,1551.67 L 1731.2,1565.53 L 1482.22,1421.77 Z " />
<path stroke="none" fill="#000000" transform="matrix(0.05 0 0 0.05 -12 -9)" d="M 1731.2,1565.53 L 1731.2,1551.67 L 1974.6,1411.14 L 1980.6,1414.6 L 1980.18,1421.77 L 1731.2,1565.53 Z " />
<path stroke="none" fill="#000000" transform="matrix(0.05 0 0 0.05 -12 -9)" d="M 1986.6,1410.65 L 1980.6,1414.6 L 1974.6,1411.14 L 1974.6,1233.75 L 1986.6,1233.75 L 1986.6,1410.65 Z " />
<path stroke="none" fill="#000000" transform="matrix(0.05 0 0 0.05 -12 -9)" d="M 1893.31,1069.27 L 1887.31,1079.67 L 1731.2,989.528 L 1731.2,982.6 L 1737.48,979.295 L 1893.31,1069.27 Z " />
<path stroke="none" fill="#000000" transform="matrix(0.05 0 0 0.05 -12 -9)" d="M 1724.92,979.295 L 1731.2,982.6 L 1731.2,989.528 L 1487.8,1130.06 L 1481.8,1126.6 L 1482.22,1119.43 L 1724.92,979.295 Z " />
<text x="0" y="0" stroke="none" fill="#000000" transform="matrix(0.05 0 0 0.05 95.6108 72.5115)" font-style="normal" font-weight="normal" font-size="200px" font-family="Arial" >
O</text>
<path stroke="none" fill="#000000" transform="matrix(0.05 0 0 0.05 -12 -9)" d="M 1980.18,1421.77 L 1980.6,1414.6 L 1986.6,1410.65 L 2154.71,1480.49 L 2124.71,1532.45 L 1980.18,1421.77 Z " />
<text x="0" y="0" stroke="none" fill="#000000" transform="matrix(0.05 0 0 0.05 120.561 43.7115)" font-style="normal" font-weight="normal" font-size="200px" font-family="Arial" >
O</text>
<path stroke="none" fill="#000000" transform="matrix(0.05 0 0 0.05 -12 -9)" d="M 2473.4,1418.07 L 2485.4,1411.13 L 2729,1551.67 L 2729,1558.6 L 2722.58,1561.82 L 2473.4,1418.07 Z " />
<path stroke="none" fill="#000000" transform="matrix(0.05 0 0 0.05 -12 -9)" d="M 2735.42,1561.82 L 2729,1558.6 L 2729,1551.67 L 2972.4,1411.14 L 2984.4,1418.06 L 2735.42,1561.82 Z " />
<path stroke="none" fill="#000000" transform="matrix(0.05 0 0 0.05 -12 -9)" d="M 2984.4,1418.06 L 2972.4,1411.14 L 2972.4,1130.06 L 2978.4,1126.6 L 2984.4,1130.55 L 2984.4,1418.06 Z " />
<path stroke="none" fill="#000000" transform="matrix(0.05 0 0 0.05 -12 -9)" d="M 2977.98,1119.43 L 2978.4,1126.6 L 2972.4,1130.06 L 2816.13,1039.83 L 2822.13,1029.44 L 2977.98,1119.43 Z " />
<path stroke="none" fill="#000000" transform="matrix(0.05 0 0 0.05 -12 -9)" d="M 2635.25,1029.76 L 2641.25,1040.15 L 2485.4,1130.07 L 2479.4,1126.6 L 2479.68,1119.51 L 2635.25,1029.76 Z " />
<path stroke="none" fill="#000000" transform="matrix(0.05 0 0 0.05 -12 -9)" d="M 2473.4,1130.38 L 2479.4,1126.6 L 2485.4,1130.07 L 2485.4,1411.13 L 2473.4,1418.07 L 2473.4,1130.38 Z " />
<path stroke="none" fill="#000000" transform="matrix(0.05 0 0 0.05 -12 -9)" d="M 1737.48,979.295 L 1731.2,982.6 L 1724.92,979.295 L 1700.29,683.681 L 1760.37,704.516 L 1737.48,979.295 Z " />
<text x="0" y="0" stroke="none" fill="#000000" transform="matrix(0.05 0 0 0.05 38.5092 43.7115)" font-style="normal" font-weight="normal" font-size="200px" font-family="Arial" >
HO</text>
<path stroke="none" fill="#000000" transform="matrix(0.05 0 0 0.05 -12 -9)" d="M 1482.22,1119.43 L 1481.8,1126.6 L 1475.8,1130.55 L 1307.46,1060.58 L 1337.46,1008.62 L 1482.22,1119.43 Z " />
<text x="0" y="0" stroke="none" fill="#000000" transform="matrix(0.05 0 0 0.05 38.5092 72.5115)" font-style="normal" font-weight="normal" font-size="200px" font-family="Arial" >
HO</text>
<path stroke="none" fill="#000000" transform="matrix(0.05 0 0 0.05 -12 -9)" d="M 1475.8,1410.65 L 1481.8,1414.6 L 1482.22,1421.77 L 1336.82,1532.95 L 1306.81,1480.99 L 1475.8,1410.65 Z " />
<text x="0" y="0" stroke="none" fill="#000000" transform="matrix(0.05 0 0 0.05 70.6708 86.9115)" font-style="normal" font-weight="normal" font-size="200px" font-family="Arial" >
OH</text>
<path stroke="none" fill="#000000" transform="matrix(0.05 0 0 0.05 -12 -9)" d="M 1725.2,1608.64 L 1737.2,1608.64 L 1739.38,1620.64 L 1723.02,1620.64 L 1725.2,1608.64 Z " />
<path stroke="none" fill="#000000" transform="matrix(0.05 0 0 0.05 -12 -9)" d="M 1714.29,1668.69 L 1748.11,1668.69 L 1750.29,1680.69 L 1712.11,1680.69 L 1714.29,1668.69 Z " />
<path stroke="none" fill="#000000" transform="matrix(0.05 0 0 0.05 -12 -9)" d="M 1703.38,1728.75 L 1759.02,1728.75 L 1761.2,1740.75 L 1701.2,1740.75 L 1703.38,1728.75 Z " />
<text x="0" y="0" stroke="none" fill="#000000" transform="matrix(0.05 0 0 0.05 50.9792 22.1115)" font-style="normal" font-weight="normal" font-size="200px" font-family="Arial" >
HO</text>
<path stroke="none" fill="#000000" transform="matrix(0.05 0 0 0.05 -12 -9)" d="M 1760.37,704.516 L 1700.29,683.681 L 1569.61,608.229 L 1575.61,597.837 L 1760.37,704.516 Z " />
<path stroke="none" fill="#000000" transform="matrix(0.05 0 0 0.05 -12 -9)" d="M 2432.94,1434.5 L 2438.94,1444.89 L 2429.62,1452.74 L 2421.48,1438.64 L 2432.94,1434.5 Z " />
<path stroke="none" fill="#000000" transform="matrix(0.05 0 0 0.05 -12 -9)" d="M 2374.44,1455.65 L 2391.37,1484.97 L 2382.05,1492.83 L 2362.98,1459.8 L 2374.44,1455.65 Z " />
<path stroke="none" fill="#000000" transform="matrix(0.05 0 0 0.05 -12 -9)" d="M 2315.94,1476.81 L 2343.8,1525.06 L 2334.48,1532.92 L 2304.48,1480.96 L 2315.94,1476.81 Z " />
<path stroke="none" fill="#000000" transform="matrix(0.05 0 0 0.05 -12 -9)" d="M 2479.68,1119.51 L 2479.4,1126.6 L 2473.4,1130.38 L 2224,1012.82 L 2236,950.372 L 2479.68,1119.51 Z " />
<text x="0" y="0" stroke="none" fill="#000000" transform="matrix(0.05 0 0 0.05 95.6108 29.3115)" font-style="normal" font-weight="normal" font-size="200px" font-family="Arial" >
OH</text>
<path stroke="none" fill="#000000" transform="matrix(0.05 0 0 0.05 -12 -9)" d="M 2236,950.372 L 2224,1012.82 L 2224,801.748 L 2236,801.748 L 2236,950.372 Z " />
<text x="0" y="0" stroke="none" fill="#000000" transform="matrix(0.05 0 0 0.05 145.501 43.7115)" font-style="normal" font-weight="normal" font-size="200px" font-family="Arial" >
OH</text>
<path stroke="none" fill="#000000" transform="matrix(0.05 0 0 0.05 -12 -9)" d="M 2984.4,1130.55 L 2978.4,1126.6 L 2977.98,1119.43 L 3122.82,1008.57 L 3152.82,1060.53 L 2984.4,1130.55 Z " />
<text x="0" y="0" stroke="none" fill="#000000" transform="matrix(0.05 0 0 0.05 145.501 72.5115)" font-style="normal" font-weight="normal" font-size="200px" font-family="Arial" >
OH</text>
<path stroke="none" fill="#000000" transform="matrix(0.05 0 0 0.05 -12 -9)" d="M 3018.84,1444.88 L 3024.84,1434.49 L 3036.3,1438.63 L 3028.16,1452.73 L 3018.84,1444.88 Z " />
<path stroke="none" fill="#000000" transform="matrix(0.05 0 0 0.05 -12 -9)" d="M 3066.39,1484.95 L 3083.32,1455.63 L 3094.78,1459.78 L 3075.71,1492.81 L 3066.39,1484.95 Z " />
<path stroke="none" fill="#000000" transform="matrix(0.05 0 0 0.05 -12 -9)" d="M 3113.94,1525.03 L 3141.8,1476.78 L 3153.26,1480.92 L 3123.26,1532.88 L 3113.94,1525.03 Z " />
<text x="0" y="0" stroke="none" fill="#000000" transform="matrix(0.05 0 0 0.05 120.561 86.9115)" font-style="normal" font-weight="normal" font-size="200px" font-family="Arial" >
OH</text>
<path stroke="none" fill="#000000" transform="matrix(0.05 0 0 0.05 -12 -9)" d="M 2722.58,1561.82 L 2729,1558.6 L 2735.42,1561.82 L 2759,1740.75 L 2699,1740.75 L 2722.58,1561.82 Z " />
<path stroke="none" fill="#000000" transform="matrix(0.05 0 0 0.05 -12 -9)" d="M 5456.44,1321.6 L 3684.2,1321.6 L 3684.2,1309.6 L 5456.44,1309.6 Z " />
<path stroke="none" fill="#000000" transform="matrix(0.05 0 0 0.05 -12 -9)" d="M 5613,1315.6 C 5613,1315.6 5433,1361.6 5433,1361.6 C 5433,1361.6 5455.44,1335.73 5455.44,1315.6 C 5455.44,1295.03 5433,1268.6 5433,1268.6 C 5433,1268.6 5613,1315.6 5613,1315.6 C 5613,1315.6 5613,1315.6 5613,1315.6 " />
<path stroke="#000000" stroke-width="1" fill="none" transform="matrix(0.05 0 0 0.05 -12 -9)" d="M 5613,1315.6 C 5613,1315.6 5433,1361.6 5433,1361.6 C 5433,1361.6 5455.44,1335.73 5455.44,1315.6 C 5455.44,1295.03 5433,1268.6 5433,1268.6 C 5433,1268.6 5613,1315.6 5613,1315.6 C 5613,1315.6 5613,1315.6 5613,1315.6 " />
<text x="0" y="0" stroke="none" fill="#000000" transform="matrix(0.05 0 0 0.05 184.91 72.56)" font-style="normal" font-weight="normal" font-size="200px" font-family="Helvetica" >
β-galactosidase</text>
<path stroke="#000000" stroke-width="12" fill="none" transform="matrix(0.05 0 0 0.05 -12 -9)" d="M 4258.79,984.949 C 4405.73,1186 4649.2,1311.87 4898.2,1315.51 " />
<text x="0" y="0" stroke="none" fill="#000000" transform="matrix(0.05 0 0 0.05 191.999 34.5764)" font-style="normal" font-weight="normal" font-size="200px" font-family="Helvetica" >
H</text>
<text x="0" y="0" stroke="none" fill="#000000" transform="matrix(0.05 0 0 0.05 199.221 36.8762)" font-style="normal" font-weight="normal" font-size="150px" font-family="Helvetica" >
2</text>
<text x="0" y="0" stroke="none" fill="#000000" transform="matrix(0.05 0 0 0.05 203.392 34.5764)" font-style="normal" font-weight="normal" font-size="200px" font-family="Helvetica" >
O</text>
<text x="0" y="0" stroke="none" fill="#000000" transform="matrix(0.05 0 0 0.05 325.001 50.3215)" font-style="normal" font-weight="normal" font-size="200px" font-family="Arial" >
O</text>
<path stroke="none" fill="#000000" transform="matrix(0.05 0 0 0.05 -12 -9)" d="M 6312.8,1118.75 L 6318.8,1114.8 L 6324.8,1118.26 L 6324.8,1399.34 L 6318.8,1402.8 L 6312.8,1398.85 L 6312.8,1118.75 Z " />
<path stroke="none" fill="#000000" transform="matrix(0.05 0 0 0.05 -12 -9)" d="M 6319.22,1409.97 L 6318.8,1402.8 L 6324.8,1399.34 L 6568.2,1539.87 L 6568.2,1553.73 L 6319.22,1409.97 Z " />
<path stroke="none" fill="#000000" transform="matrix(0.05 0 0 0.05 -12 -9)" d="M 6568.2,1553.73 L 6568.2,1539.87 L 6811.8,1399.33 L 6817.8,1402.8 L 6817.38,1409.97 L 6568.2,1553.73 Z " />
<path stroke="none" fill="#000000" transform="matrix(0.05 0 0 0.05 -12 -9)" d="M 6823.8,1398.85 L 6817.8,1402.8 L 6811.8,1399.33 L 6811.8,1221.95 L 6823.8,1221.95 L 6823.8,1398.85 Z " />
<path stroke="none" fill="#000000" transform="matrix(0.05 0 0 0.05 -12 -9)" d="M 6730.5,1057.51 L 6724.5,1067.9 L 6568.2,977.727 L 6568.2,970.8 L 6574.48,967.493 L 6730.5,1057.51 Z " />
<path stroke="none" fill="#000000" transform="matrix(0.05 0 0 0.05 -12 -9)" d="M 6561.92,967.495 L 6568.2,970.8 L 6568.2,977.727 L 6324.8,1118.26 L 6318.8,1114.8 L 6319.22,1107.63 L 6561.92,967.495 Z " />
<text x="0" y="0" stroke="none" fill="#000000" transform="matrix(0.05 0 0 0.05 427.661 50.3215)" font-style="normal" font-weight="normal" font-size="200px" font-family="Arial" >
O</text>
<path stroke="none" fill="#000000" transform="matrix(0.05 0 0 0.05 -12 -9)" d="M 8366.2,1111.34 L 8378.2,1118.26 L 8378.2,1399.34 L 8372.2,1402.8 L 8366.2,1398.85 L 8366.2,1111.34 Z " />
<path stroke="none" fill="#000000" transform="matrix(0.05 0 0 0.05 -12 -9)" d="M 8372.62,1409.97 L 8372.2,1402.8 L 8378.2,1399.34 L 8621.6,1539.87 L 8621.6,1553.73 L 8372.62,1409.97 Z " />
<path stroke="none" fill="#000000" transform="matrix(0.05 0 0 0.05 -12 -9)" d="M 8621.6,1553.73 L 8621.6,1539.87 L 8865,1399.34 L 8871,1402.8 L 8870.58,1409.97 L 8621.6,1553.73 Z " />
<path stroke="none" fill="#000000" transform="matrix(0.05 0 0 0.05 -12 -9)" d="M 8877,1398.85 L 8871,1402.8 L 8865,1399.34 L 8865,1221.95 L 8877,1221.95 L 8877,1398.85 Z " />
<path stroke="none" fill="#000000" transform="matrix(0.05 0 0 0.05 -12 -9)" d="M 8783.71,1057.47 L 8777.71,1067.87 L 8621.6,977.728 L 8621.6,970.8 L 8627.88,967.495 L 8783.71,1057.47 Z " />
<path stroke="none" fill="#000000" transform="matrix(0.05 0 0 0.05 -12 -9)" d="M 8615.32,967.495 L 8621.6,970.8 L 8621.6,977.728 L 8378.2,1118.26 L 8366.2,1111.34 L 8615.32,967.495 Z " />
<text x="0" y="0" stroke="none" fill="#000000" transform="matrix(0.05 0 0 0.05 280.359 43.1215)" font-style="normal" font-weight="normal" font-size="200px" font-family="Arial" >
HO</text>
<path stroke="none" fill="#000000" transform="matrix(0.05 0 0 0.05 -12 -9)" d="M 6319.22,1107.63 L 6318.8,1114.8 L 6312.8,1118.75 L 6144.89,1049.03 L 6174.89,997.07 L 6319.22,1107.63 Z " />
<text x="0" y="0" stroke="none" fill="#000000" transform="matrix(0.05 0 0 0.05 280.359 71.9215)" font-style="normal" font-weight="normal" font-size="200px" font-family="Arial" >
HO</text>
<path stroke="none" fill="#000000" transform="matrix(0.05 0 0 0.05 -12 -9)" d="M 6312.8,1398.85 L 6318.8,1402.8 L 6319.22,1409.97 L 6173.38,1521.4 L 6143.38,1469.44 L 6312.8,1398.85 Z " />
<text x="0" y="0" stroke="none" fill="#000000" transform="matrix(0.05 0 0 0.05 312.521 86.3215)" font-style="normal" font-weight="normal" font-size="200px" font-family="Arial" >
OH</text>
<path stroke="none" fill="#000000" transform="matrix(0.05 0 0 0.05 -12 -9)" d="M 6562.2,1596.84 L 6574.2,1596.84 L 6576.36,1608.84 L 6560.04,1608.84 L 6562.2,1596.84 Z " />
<path stroke="none" fill="#000000" transform="matrix(0.05 0 0 0.05 -12 -9)" d="M 6551.28,1657.39 L 6585.12,1657.39 L 6587.28,1669.39 L 6549.12,1669.39 L 6551.28,1657.39 Z " />
<path stroke="none" fill="#000000" transform="matrix(0.05 0 0 0.05 -12 -9)" d="M 6540.36,1717.95 L 6596.04,1717.95 L 6598.2,1729.95 L 6538.2,1729.95 L 6540.36,1717.95 Z " />
<text x="0" y="0" stroke="none" fill="#000000" transform="matrix(0.05 0 0 0.05 337.471 71.9215)" font-style="normal" font-weight="normal" font-size="200px" font-family="Arial" >
OH</text>
<path stroke="none" fill="#000000" transform="matrix(0.05 0 0 0.05 -12 -9)" d="M 6817.38,1409.97 L 6817.8,1402.8 L 6823.8,1398.85 L 6992.35,1468.94 L 6962.35,1520.9 L 6817.38,1409.97 Z " />
<path stroke="none" fill="#000000" transform="matrix(0.05 0 0 0.05 -12 -9)" d="M 6574.48,967.493 L 6568.2,970.8 L 6561.92,967.495 L 6537.29,671.881 L 6597.37,692.716 L 6574.48,967.493 Z " />
<path stroke="none" fill="#000000" transform="matrix(0.05 0 0 0.05 -12 -9)" d="M 8627.88,967.495 L 8621.6,970.8 L 8615.32,967.495 L 8590.69,671.881 L 8650.77,692.716 L 8627.88,967.495 Z " />
<text x="0" y="0" stroke="none" fill="#000000" transform="matrix(0.05 0 0 0.05 383.029 43.1215)" font-style="normal" font-weight="normal" font-size="200px" font-family="Arial" >
HO</text>
<path stroke="none" fill="#000000" transform="matrix(0.05 0 0 0.05 -12 -9)" d="M 8331.75,1084.52 L 8325.75,1094.91 L 8314.27,1090.79 L 8322.45,1076.63 L 8331.75,1084.52 Z " />
<path stroke="none" fill="#000000" transform="matrix(0.05 0 0 0.05 -12 -9)" d="M 8285.05,1044.95 L 8268.14,1074.24 L 8256.66,1070.13 L 8275.75,1037.07 L 8285.05,1044.95 Z " />
<path stroke="none" fill="#000000" transform="matrix(0.05 0 0 0.05 -12 -9)" d="M 8238.35,1005.39 L 8210.52,1053.58 L 8199.04,1049.46 L 8229.05,997.503 L 8238.35,1005.39 Z " />
<text x="0" y="0" stroke="none" fill="#000000" transform="matrix(0.05 0 0 0.05 383.029 71.9215)" font-style="normal" font-weight="normal" font-size="200px" font-family="Arial" >
HO</text>
<path stroke="none" fill="#000000" transform="matrix(0.05 0 0 0.05 -12 -9)" d="M 8366.2,1398.85 L 8372.2,1402.8 L 8372.62,1409.97 L 8227.53,1520.97 L 8197.53,1469.01 L 8366.2,1398.85 Z " />
<text x="0" y="0" stroke="none" fill="#000000" transform="matrix(0.05 0 0 0.05 415.191 86.3215)" font-style="normal" font-weight="normal" font-size="200px" font-family="Arial" >
OH</text>
<path stroke="none" fill="#000000" transform="matrix(0.05 0 0 0.05 -12 -9)" d="M 8615.6,1596.84 L 8627.6,1596.84 L 8629.76,1608.84 L 8613.44,1608.84 L 8615.6,1596.84 Z " />
<path stroke="none" fill="#000000" transform="matrix(0.05 0 0 0.05 -12 -9)" d="M 8604.68,1657.39 L 8638.52,1657.39 L 8640.68,1669.39 L 8602.52,1669.39 L 8604.68,1657.39 Z " />
<path stroke="none" fill="#000000" transform="matrix(0.05 0 0 0.05 -12 -9)" d="M 8593.76,1717.95 L 8649.44,1717.95 L 8651.6,1729.95 L 8591.6,1729.95 L 8593.76,1717.95 Z " />
<text x="0" y="0" stroke="none" fill="#000000" transform="matrix(0.05 0 0 0.05 440.131 71.9215)" font-style="normal" font-weight="normal" font-size="200px" font-family="Arial" >
OH</text>
<path stroke="none" fill="#000000" transform="matrix(0.05 0 0 0.05 -12 -9)" d="M 8870.58,1409.97 L 8871,1402.8 L 8877,1398.85 L 9045.55,1468.94 L 9015.55,1520.9 L 8870.58,1409.97 Z " />
<text x="0" y="0" stroke="none" fill="#000000" transform="matrix(0.05 0 0 0.05 292.829 21.5215)" font-style="normal" font-weight="normal" font-size="200px" font-family="Arial" >
HO</text>
<path stroke="none" fill="#000000" transform="matrix(0.05 0 0 0.05 -12 -9)" d="M 6597.37,692.716 L 6537.29,671.881 L 6407.04,596.679 L 6413.04,586.287 L 6597.37,692.716 Z " />
<text x="0" y="0" stroke="none" fill="#000000" transform="matrix(0.05 0 0 0.05 395.499 21.5215)" font-style="normal" font-weight="normal" font-size="200px" font-family="Arial" >
HO</text>
<path stroke="none" fill="#000000" transform="matrix(0.05 0 0 0.05 -12 -9)" d="M 8650.77,692.716 L 8590.69,671.881 L 8459.69,596.246 L 8465.69,585.854 L 8650.77,692.716 Z " />
<text x="0" y="0" stroke="none" fill="#000000" transform="matrix(0.05 0 0 0.05 83.5477 106.48)" font-style="normal" font-weight="normal" font-size="200px" font-family="Arial" >
lactose</text>
<text x="0" y="0" stroke="none" fill="#000000" transform="matrix(0.05 0 0 0.05 391.889 105.55)" font-style="normal" font-weight="normal" font-size="200px" font-family="Arial" >
β-D-glucose</text>
<text x="0" y="0" stroke="none" fill="#000000" transform="matrix(0.05 0 0 0.05 285.059 104.97)" font-style="normal" font-weight="normal" font-size="200px" font-family="Arial" >
β-D-galactose</text>
<path stroke="#000000" stroke-width="12" fill="none" transform="matrix(0.05 0 0 0.05 -12 -9)" d="M 297.6,2455.4 C 297.6,2455.4 297.6,306.599 297.6,306.599 C 297.6,266.857 329.857,234.6 369.599,234.6 C 369.599,234.6 9646.8,234.6 9646.8,234.6 C 9686.54,234.6 9718.8,266.857 9718.8,306.599 C 9718.8,306.599 9718.8,2455.4 9718.8,2455.4 C 9718.8,2495.14 9686.54,2527.4 9646.8,2527.4 C 9646.8,2527.4 369.599,2527.4 369.599,2527.4 C 329.857,2527.4 297.6,2495.14 297.6,2455.4 " />
<path stroke="#000000" stroke-width="12" fill="none" transform="matrix(0.05 0 0 0.05 -12 -9)" d="M 297.6,5095.6 C 297.6,5095.6 297.6,2891.2 297.6,2891.2 C 297.6,2851.46 329.857,2819.2 369.599,2819.2 C 369.599,2819.2 9646.8,2819.2 9646.8,2819.2 C 9686.54,2819.2 9718.8,2851.46 9718.8,2891.2 C 9718.8,2891.2 9718.8,5095.6 9718.8,5095.6 C 9718.8,5135.34 9686.54,5167.6 9646.8,5167.6 C 9646.8,5167.6 369.599,5167.6 369.599,5167.6 C 329.857,5167.6 297.6,5135.34 297.6,5095.6 " />
<text x="0" y="0" stroke="none" fill="#000000" transform="matrix(0.05 0 0 0.05 348.7 184.59)" font-style="normal" font-weight="normal" font-size="280px" font-family="Helvetica" >
+</text>
</svg>
