<?xml version="1.0" standalone="no" ?>
<!DOCTYPE svg PUBLIC "-//W3C//DTD SVG 1.1//EN" "http://www.w3.org/Graphics/SVG/1.1/DTD/svg11.dtd">
<svg width="218px" height="111px" viewBox="0 0 218 111" style="background-color: #ffffff00" xmlns="http://www.w3.org/2000/svg" xmlns:xlink="http://www.w3.org/1999/xlink" version="1.1" >
<path stroke="none" fill="#000000" transform="matrix(0.05 0 0 0.05 -18 -9)" d="M 1149.37,989.99 L 1161.37,996.918 L 1161.37,1276.99 L 1149.37,1283.92 L 1149.37,989.99 Z " />
<path stroke="none" fill="#000000" transform="matrix(0.05 0 0 0.05 -18 -9)" d="M 1201.03,1023.28 L 1213.03,1023.28 L 1213.03,1250.63 L 1201.03,1250.63 L 1201.03,1023.28 Z " />
<path stroke="none" fill="#000000" transform="matrix(0.05 0 0 0.05 -18 -9)" d="M 1149.37,1283.92 L 1161.37,1276.99 L 1403.92,1417.03 L 1403.92,1423.95 L 1397.92,1427.42 L 1149.37,1283.92 Z " />
<path stroke="none" fill="#000000" transform="matrix(0.05 0 0 0.05 -18 -9)" d="M 1409.92,1427.42 L 1403.92,1423.95 L 1403.92,1417.03 L 1646.47,1276.99 L 1652.47,1280.45 L 1653.15,1286.99 L 1409.92,1427.42 Z " />
<path stroke="none" fill="#000000" transform="matrix(0.05 0 0 0.05 -18 -9)" d="M 1406.92,1369.5 L 1400.92,1359.11 L 1597.81,1245.43 L 1603.81,1255.82 L 1406.92,1369.5 Z " />
<path stroke="none" fill="#000000" transform="matrix(0.05 0 0 0.05 -18 -9)" d="M 1658.47,1276.09 L 1652.47,1280.45 L 1646.47,1276.99 L 1646.47,996.918 L 1652.47,993.454 L 1658.47,997.813 L 1658.47,1276.09 Z " />
<path stroke="none" fill="#000000" transform="matrix(0.05 0 0 0.05 -18 -9)" d="M 1653.15,986.922 L 1652.47,993.454 L 1646.47,996.918 L 1403.92,856.882 L 1403.92,843.026 L 1653.15,986.922 Z " />
<path stroke="none" fill="#000000" transform="matrix(0.05 0 0 0.05 -18 -9)" d="M 1603.81,1018.08 L 1597.81,1028.48 L 1400.92,914.802 L 1406.92,904.41 L 1603.81,1018.08 Z " />
<path stroke="none" fill="#000000" transform="matrix(0.05 0 0 0.05 -18 -9)" d="M 1403.92,843.026 L 1403.92,856.882 L 1161.37,996.918 L 1149.37,989.99 L 1403.92,843.026 Z " />
<text x="0" y="0" stroke="none" fill="#000000" transform="matrix(0.05 0 0 0.05 74.6602 39.8198)" font-style="normal" font-weight="normal" font-size="200px" font-family="Arial" >
N</text>
<path stroke="none" fill="#000000" transform="matrix(0.05 0 0 0.05 -18 -9)" d="M 1653.15,1286.99 L 1652.47,1280.45 L 1658.47,1276.09 L 1923.13,1362.09 L 1927.71,1376.2 L 1653.15,1286.99 Z " />
<path stroke="none" fill="#000000" transform="matrix(0.05 0 0 0.05 -18 -9)" d="M 1927.71,1376.2 L 1923.13,1362.09 L 2086.7,1136.95 L 2094.11,1136.95 L 2097.17,1142.95 L 1927.71,1376.2 Z " />
<path stroke="none" fill="#000000" transform="matrix(0.05 0 0 0.05 -18 -9)" d="M 1910.54,1311.94 L 1900.83,1304.89 L 2025.41,1133.43 L 2035.11,1140.48 L 1910.54,1311.94 Z " />
<path stroke="none" fill="#000000" transform="matrix(0.05 0 0 0.05 -18 -9)" d="M 2097.17,1130.95 L 2094.11,1136.95 L 2086.7,1136.95 L 1992.21,1006.91 L 2001.92,999.855 L 2097.17,1130.95 Z " />
<path stroke="none" fill="#000000" transform="matrix(0.05 0 0 0.05 -18 -9)" d="M 1823.52,931.567 L 1827.23,942.98 L 1658.47,997.813 L 1652.47,993.454 L 1653.15,986.922 L 1823.52,931.567 Z " />
<text x="0" y="0" stroke="none" fill="#000000" transform="matrix(0.05 0 0 0.05 48.585 80.1292)" font-style="normal" font-weight="normal" font-size="200px" font-family="Arial" >
NH</text>
<path stroke="none" fill="#000000" transform="matrix(0.05 0 0 0.05 -18 -9)" d="M 1397.92,1427.42 L 1403.92,1423.95 L 1409.92,1427.42 L 1409.92,1607.37 L 1397.92,1607.37 L 1397.92,1427.42 Z " />
<path stroke="none" fill="#000000" transform="matrix(0.05 0 0 0.05 -18 -9)" d="M 1298.79,1764.72 L 1304.79,1775.11 L 1161.37,1857.92 L 1155.37,1854.45 L 1155.37,1847.53 L 1298.79,1764.72 Z " />
<text x="0" y="0" stroke="none" fill="#000000" transform="matrix(0.05 0 0 0.05 11.3027 101.654)" font-style="normal" font-weight="normal" font-size="200px" font-family="Arial" >
N</text>
<path stroke="none" fill="#000000" transform="matrix(0.05 0 0 0.05 -18 -9)" d="M 1155.37,1847.53 L 1155.37,1854.45 L 1149.37,1857.92 L 906.819,1717.88 L 906.819,1704.03 L 1155.37,1847.53 Z " />
<path stroke="none" fill="#000000" transform="matrix(0.05 0 0 0.05 -18 -9)" d="M 906.819,1704.03 L 906.819,1717.88 L 664.27,1857.92 L 652.27,1850.99 L 906.819,1704.03 Z " />
<path stroke="none" fill="#000000" transform="matrix(0.05 0 0 0.05 -18 -9)" d="M 652.27,1850.99 L 664.27,1857.92 L 664.27,2036.87 L 652.27,2036.87 L 652.27,1850.99 Z " />
<path stroke="none" fill="#000000" transform="matrix(0.05 0 0 0.05 -18 -9)" d="M 755.488,2204.51 L 761.488,2194.12 L 906.819,2278.03 L 906.819,2291.88 L 755.488,2204.51 Z " />
<path stroke="none" fill="#000000" transform="matrix(0.05 0 0 0.05 -18 -9)" d="M 906.819,2291.88 L 906.819,2278.03 L 1149.37,2137.99 L 1155.37,2141.45 L 1154.94,2148.63 L 906.819,2291.88 Z " />
<path stroke="none" fill="#000000" transform="matrix(0.05 0 0 0.05 -18 -9)" d="M 1161.37,2137.49 L 1155.37,2141.45 L 1149.37,2137.99 L 1149.37,1857.92 L 1155.37,1854.45 L 1161.37,1857.92 L 1161.37,2137.49 Z " />
<text x="0" y="0" stroke="none" fill="#000000" transform="matrix(0.05 0 0 0.05 49.1417 108.829)" font-style="normal" font-weight="normal" font-size="200px" font-family="Arial" >
F</text>
<path stroke="none" fill="#000000" transform="matrix(0.05 0 0 0.05 -18 -9)" d="M 1154.94,2148.63 L 1155.37,2141.45 L 1161.37,2137.49 L 1325.52,2205.05 L 1295.52,2257.01 L 1154.94,2148.63 Z " />
<path stroke="none" fill="#000000" transform="matrix(0.05 0 0 0.05 -18 -9)" d="M 553.579,2194.97 L 559.578,2205.36 L 412.721,2290.15 L 406.721,2279.76 L 553.579,2194.97 Z " />
<path stroke="none" fill="#000000" transform="matrix(0.05 0 0 0.05 -18 -9)" d="M 1967.7,794.072 L 1956.28,790.364 L 2009.47,626.664 L 2018.74,636.961 L 1967.7,794.072 Z " />
<path stroke="none" fill="#000000" transform="matrix(0.05 0 0 0.05 -18 -9)" d="M 2018.74,636.961 L 2009.47,626.664 L 2289.99,567.038 L 2294.84,572.142 L 2292.9,578.688 L 2018.74,636.961 Z " />
<text x="0" y="0" stroke="none" fill="#000000" transform="matrix(0.05 0 0 0.05 97.4017 9.32762)" font-style="normal" font-weight="normal" font-size="200px" font-family="Arial" >
F</text>
<path stroke="none" fill="#000000" transform="matrix(0.05 0 0 0.05 -18 -9)" d="M 2303.32,563.657 L 2294.84,572.142 L 2289.99,567.038 L 2334.38,401.398 L 2345.97,404.504 L 2303.32,563.657 Z " />
<text x="0" y="0" stroke="none" fill="#000000" transform="matrix(0.05 0 0 0.05 103.835 33.3356)" font-style="normal" font-weight="normal" font-size="200px" font-family="Arial" >
F</text>
<path stroke="none" fill="#000000" transform="matrix(0.05 0 0 0.05 -18 -9)" d="M 2292.9,578.688 L 2294.84,572.142 L 2306.43,575.248 L 2420.26,689.082 L 2411.78,697.567 L 2292.9,578.688 Z " />
<text x="0" y="0" stroke="none" fill="#000000" transform="matrix(0.05 0 0 0.05 107.549 19.4746)" font-style="normal" font-weight="normal" font-size="200px" font-family="Arial" >
F</text>
<path stroke="none" fill="#000000" transform="matrix(0.05 0 0 0.05 -18 -9)" d="M 2306.43,575.248 L 2294.84,572.142 L 2303.32,563.657 L 2484.12,515.212 L 2487.23,526.803 L 2306.43,575.248 Z " />
<path stroke="none" fill="#000000" transform="matrix(0.05 0 0 0.05 -18 -9)" d="M 2097.17,1142.95 L 2094.11,1136.95 L 2097.17,1130.95 L 2381.11,1130.95 L 2381.11,1142.95 L 2097.17,1142.95 Z " />
<path stroke="none" fill="#000000" transform="matrix(0.05 0 0 0.05 -18 -9)" d="M 2381.11,1091.29 L 2381.11,1079.29 L 2668.11,1079.29 L 2668.11,1091.29 L 2381.11,1091.29 Z " />
<path stroke="none" fill="#000000" transform="matrix(0.05 0 0 0.05 -18 -9)" d="M 2381.11,1142.95 L 2381.11,1130.95 L 2668.11,1130.95 L 2668.11,1142.95 L 2381.11,1142.95 Z " />
<path stroke="none" fill="#000000" transform="matrix(0.05 0 0 0.05 -18 -9)" d="M 2381.11,1194.61 L 2381.11,1182.61 L 2668.11,1182.61 L 2668.11,1194.61 L 2381.11,1194.61 Z " />
<path stroke="none" fill="#000000" transform="matrix(0.05 0 0 0.05 -18 -9)" d="M 2668.11,1142.95 L 2668.11,1130.95 L 2958.58,1130.95 L 2951.65,1142.95 L 2668.11,1142.95 Z " />
<text x="0" y="0" stroke="none" fill="#000000" transform="matrix(0.05 0 0 0.05 126.098 63.8567)" font-style="normal" font-weight="normal" font-size="200px" font-family="Arial" >
HN</text>
<path stroke="none" fill="#000000" transform="matrix(0.05 0 0 0.05 -18 -9)" d="M 2951.65,1142.95 L 2958.58,1130.95 L 3042.41,1276.15 L 3032.01,1282.15 L 2951.65,1142.95 Z " />
<path stroke="none" fill="#000000" transform="matrix(0.05 0 0 0.05 -18 -9)" d="M 3186.98,1391.5 L 3186.98,1379.5 L 3382.19,1379.5 L 3385.61,1385.5 L 3382.19,1391.5 L 3186.98,1391.5 Z " />
<path stroke="none" fill="#000000" transform="matrix(0.05 0 0 0.05 -18 -9)" d="M 3382.19,1391.5 L 3385.61,1385.5 L 3392.58,1385.5 L 3535.08,1626.59 L 3528.23,1638.59 L 3382.19,1391.5 Z " />
<path stroke="none" fill="#000000" transform="matrix(0.05 0 0 0.05 -18 -9)" d="M 3440.46,1388.56 L 3450.79,1382.45 L 3566.29,1577.87 L 3555.96,1583.98 L 3440.46,1388.56 Z " />
<path stroke="none" fill="#000000" transform="matrix(0.05 0 0 0.05 -18 -9)" d="M 3528.23,1638.59 L 3535.08,1626.59 L 3815.17,1626.59 L 3822.14,1638.59 L 3528.23,1638.59 Z " />
<path stroke="none" fill="#000000" transform="matrix(0.05 0 0 0.05 -18 -9)" d="M 3822.14,1638.59 L 3815.17,1626.59 L 3952.71,1385.5 L 3959.61,1385.5 L 3963.1,1391.5 L 3822.14,1638.59 Z " />
<path stroke="none" fill="#000000" transform="matrix(0.05 0 0 0.05 -18 -9)" d="M 3794.12,1584.36 L 3783.7,1578.41 L 3895.45,1382.53 L 3905.88,1388.48 L 3794.12,1584.36 Z " />
<path stroke="none" fill="#000000" transform="matrix(0.05 0 0 0.05 -18 -9)" d="M 3963.1,1379.5 L 3959.61,1385.5 L 3952.71,1385.5 L 3815.17,1144.42 L 3822.14,1132.42 L 3963.1,1379.5 Z " />
<path stroke="none" fill="#000000" transform="matrix(0.05 0 0 0.05 -18 -9)" d="M 3822.14,1132.42 L 3815.17,1144.42 L 3535.08,1144.42 L 3531.65,1138.42 L 3535.12,1132.42 L 3822.14,1132.42 Z " />
<path stroke="none" fill="#000000" transform="matrix(0.05 0 0 0.05 -18 -9)" d="M 3788.65,1184.08 L 3788.65,1196.08 L 3561.13,1196.08 L 3561.13,1184.08 L 3788.65,1184.08 Z " />
<path stroke="none" fill="#000000" transform="matrix(0.05 0 0 0.05 -18 -9)" d="M 3524.7,1138.38 L 3531.65,1138.42 L 3535.08,1144.42 L 3392.58,1385.5 L 3385.61,1385.5 L 3382.19,1379.5 L 3524.7,1138.38 Z " />
<text x="0" y="0" stroke="none" fill="#000000" transform="matrix(0.05 0 0 0.05 147.518 39.075)" font-style="normal" font-weight="normal" font-size="200px" font-family="Arial" >
O</text>
<path stroke="none" fill="#000000" transform="matrix(0.05 0 0 0.05 -18 -9)" d="M 3535.12,1132.42 L 3531.65,1138.42 L 3524.7,1138.38 L 3436.57,985.732 L 3446.96,979.732 L 3535.12,1132.42 Z " />
<path stroke="none" fill="#000000" transform="matrix(0.05 0 0 0.05 -18 -9)" d="M 3446.22,801.297 L 3435.83,795.297 L 3526.46,638.32 L 3536.85,644.32 L 3446.22,801.297 Z " />
<path stroke="none" fill="#000000" transform="matrix(0.05 0 0 0.05 -18 -9)" d="M 3963.1,1391.5 L 3959.61,1385.5 L 3963.1,1379.5 L 4250.08,1379.5 L 4243.15,1391.5 L 3963.1,1391.5 Z " />
<text x="0" y="0" stroke="none" fill="#000000" transform="matrix(0.05 0 0 0.05 197.617 51.4292)" font-style="normal" font-weight="normal" font-size="200px" font-family="Arial" >
O</text>
<path stroke="none" fill="#000000" transform="matrix(0.05 0 0 0.05 -18 -9)" d="M 4221.98,1388.5 L 4211.59,1382.5 L 4308.81,1214.12 L 4319.2,1220.12 L 4221.98,1388.5 Z " />
<path stroke="none" fill="#000000" transform="matrix(0.05 0 0 0.05 -18 -9)" d="M 4266.72,1414.33 L 4256.33,1408.33 L 4353.55,1239.95 L 4363.94,1245.95 L 4266.72,1414.33 Z " />
<text x="0" y="0" stroke="none" fill="#000000" transform="matrix(0.05 0 0 0.05 190.673 76.2842)" font-style="normal" font-weight="normal" font-size="200px" font-family="Arial" >
HN</text>
<path stroke="none" fill="#000000" transform="matrix(0.05 0 0 0.05 -18 -9)" d="M 4243.15,1391.5 L 4250.08,1379.5 L 4333.66,1524.26 L 4323.26,1530.26 L 4243.15,1391.5 Z " />
<path stroke="none" fill="#000000" transform="matrix(0.05 0 0 0.05 -18 -9)" d="M 4477.48,1640.05 L 4477.48,1628.05 L 4677.11,1628.05 L 4677.11,1640.05 L 4477.48,1640.05 Z " />
<text x="0" y="0" stroke="none" fill="#000000" transform="matrix(0.05 0 0 0.05 98.6694 95.7311)" font-style="normal" font-weight="normal" font-size="200px" font-family="Helvetica" >
Rezatapopt</text>
</svg>
